%TF.GenerationSoftware,KiCad,Pcbnew,10.0.4*%
%TF.CreationDate,2026-07-30T22:03:17+05:30*%
%TF.ProjectId,Signal Conditioning Circuit 4 IO,5369676e-616c-4204-936f-6e646974696f,rev?*%
%TF.SameCoordinates,Original*%
%TF.FileFunction,Paste,Top*%
%TF.FilePolarity,Positive*%
%FSLAX46Y46*%
G04 Gerber Fmt 4.6, Leading zero omitted, Abs format (unit mm)*
G04 Created by KiCad (PCBNEW 10.0.4) date 2026-07-30 22:03:17*
%MOMM*%
%LPD*%
G01*
G04 APERTURE LIST*
G04 Aperture macros list*
%AMRoundRect*
0 Rectangle with rounded corners*
0 $1 Rounding radius*
0 $2 $3 $4 $5 $6 $7 $8 $9 X,Y pos of 4 corners*
0 Add a 4 corners polygon primitive as box body*
4,1,4,$2,$3,$4,$5,$6,$7,$8,$9,$2,$3,0*
0 Add four circle primitives for the rounded corners*
1,1,$1+$1,$2,$3*
1,1,$1+$1,$4,$5*
1,1,$1+$1,$6,$7*
1,1,$1+$1,$8,$9*
0 Add four rect primitives between the rounded corners*
20,1,$1+$1,$2,$3,$4,$5,0*
20,1,$1+$1,$4,$5,$6,$7,0*
20,1,$1+$1,$6,$7,$8,$9,0*
20,1,$1+$1,$8,$9,$2,$3,0*%
G04 Aperture macros list end*
%ADD10RoundRect,0.250000X-0.550000X1.500000X-0.550000X-1.500000X0.550000X-1.500000X0.550000X1.500000X0*%
%ADD11R,1.200000X1.200000*%
%ADD12RoundRect,0.250000X0.325000X0.650000X-0.325000X0.650000X-0.325000X-0.650000X0.325000X-0.650000X0*%
%ADD13RoundRect,0.250000X0.312500X0.625000X-0.312500X0.625000X-0.312500X-0.625000X0.312500X-0.625000X0*%
%ADD14RoundRect,0.250000X-0.650000X0.325000X-0.650000X-0.325000X0.650000X-0.325000X0.650000X0.325000X0*%
%ADD15RoundRect,0.250000X0.400000X0.600000X-0.400000X0.600000X-0.400000X-0.600000X0.400000X-0.600000X0*%
%ADD16RoundRect,0.250000X-0.625000X0.312500X-0.625000X-0.312500X0.625000X-0.312500X0.625000X0.312500X0*%
%ADD17RoundRect,0.250000X0.625000X-0.312500X0.625000X0.312500X-0.625000X0.312500X-0.625000X-0.312500X0*%
%ADD18RoundRect,0.150000X-0.825000X-0.150000X0.825000X-0.150000X0.825000X0.150000X-0.825000X0.150000X0*%
G04 APERTURE END LIST*
D10*
%TO.C,Cout_1V5*%
X59425000Y-98225000D03*
X59425000Y-103625000D03*
%TD*%
D11*
%TO.C,DS5*%
X74400000Y-60582500D03*
X71600000Y-60582500D03*
%TD*%
D12*
%TO.C,C16*%
X64875000Y-85100000D03*
X61925000Y-85100000D03*
%TD*%
D13*
%TO.C,RS3*%
X54612500Y-21287500D03*
X51687500Y-21287500D03*
%TD*%
D14*
%TO.C,CS1*%
X47875000Y-22557500D03*
X47875000Y-25507500D03*
%TD*%
D13*
%TO.C,RS10*%
X54612500Y-40287500D03*
X51687500Y-40287500D03*
%TD*%
D15*
%TO.C,DS6*%
X74600000Y-64875000D03*
X71100000Y-64875000D03*
%TD*%
D12*
%TO.C,C1*%
X42650000Y-37175000D03*
X39700000Y-37175000D03*
%TD*%
D13*
%TO.C,RS8*%
X36287500Y-37175000D03*
X33362500Y-37175000D03*
%TD*%
D11*
%TO.C,DS1*%
X74400000Y-22557500D03*
X71600000Y-22557500D03*
%TD*%
D12*
%TO.C,C14*%
X37725000Y-85100000D03*
X34775000Y-85100000D03*
%TD*%
%TO.C,C4*%
X42700000Y-18325000D03*
X39750000Y-18325000D03*
%TD*%
D16*
%TO.C,RS5*%
X52225000Y-25097500D03*
X52225000Y-28022500D03*
%TD*%
D14*
%TO.C,Cadj1*%
X36525000Y-103800000D03*
X36525000Y-106750000D03*
%TD*%
D12*
%TO.C,C8*%
X64875000Y-47125000D03*
X61925000Y-47125000D03*
%TD*%
D13*
%TO.C,RS27*%
X61925000Y-75250000D03*
X59000000Y-75250000D03*
%TD*%
D12*
%TO.C,C2*%
X69825000Y-18325000D03*
X66875000Y-18325000D03*
%TD*%
D17*
%TO.C,RS7*%
X83700000Y-25482500D03*
X83700000Y-22557500D03*
%TD*%
D15*
%TO.C,DS2*%
X74600000Y-26765000D03*
X71100000Y-26765000D03*
%TD*%
D12*
%TO.C,C7*%
X69825000Y-37175000D03*
X66875000Y-37175000D03*
%TD*%
D18*
%TO.C,U9*%
X80575000Y-99050000D03*
X80575000Y-100320000D03*
X80575000Y-101590000D03*
X80575000Y-102860000D03*
X85525000Y-102860000D03*
X85525000Y-101590000D03*
X85525000Y-100320000D03*
X85525000Y-99050000D03*
%TD*%
D16*
%TO.C,RS11*%
X52225000Y-44097500D03*
X52225000Y-47022500D03*
%TD*%
D13*
%TO.C,RS4*%
X61937500Y-18325000D03*
X59012500Y-18325000D03*
%TD*%
D12*
%TO.C,C6*%
X37700000Y-47125000D03*
X34750000Y-47125000D03*
%TD*%
D16*
%TO.C,R1V5*%
X36500000Y-98287500D03*
X36500000Y-101212500D03*
%TD*%
D11*
%TO.C,D1V5-1*%
X43900000Y-95325000D03*
X43900000Y-98125000D03*
%TD*%
D13*
%TO.C,RS15*%
X36287500Y-56250000D03*
X33362500Y-56250000D03*
%TD*%
D12*
%TO.C,C10*%
X37700000Y-66300000D03*
X34750000Y-66300000D03*
%TD*%
%TO.C,C15*%
X69825000Y-75250000D03*
X66875000Y-75250000D03*
%TD*%
D18*
%TO.C,U10*%
X47250000Y-96955000D03*
X47250000Y-98225000D03*
X47250000Y-99495000D03*
X47250000Y-100765000D03*
X52200000Y-100765000D03*
X52200000Y-99495000D03*
X52200000Y-98225000D03*
X52200000Y-96955000D03*
%TD*%
D12*
%TO.C,C17*%
X88475000Y-96275000D03*
X85525000Y-96275000D03*
%TD*%
%TO.C,C9*%
X42625000Y-56250000D03*
X39675000Y-56250000D03*
%TD*%
D16*
%TO.C,RS9*%
X43750000Y-41557500D03*
X43750000Y-44482500D03*
%TD*%
D13*
%TO.C,RS17*%
X54612500Y-59312500D03*
X51687500Y-59312500D03*
%TD*%
D17*
%TO.C,RS14*%
X83700000Y-44482500D03*
X83700000Y-41557500D03*
%TD*%
D13*
%TO.C,RS13*%
X61925000Y-37175000D03*
X59000000Y-37175000D03*
%TD*%
D16*
%TO.C,RS23*%
X43750000Y-79582500D03*
X43750000Y-82507500D03*
%TD*%
%TO.C,RS6*%
X57025000Y-25097500D03*
X57025000Y-28022500D03*
%TD*%
D18*
%TO.C,U1*%
X34800000Y-21287500D03*
X34800000Y-22557500D03*
X34800000Y-23827500D03*
X34800000Y-25097500D03*
X39750000Y-25097500D03*
X39750000Y-23827500D03*
X39750000Y-22557500D03*
X39750000Y-21287500D03*
%TD*%
D13*
%TO.C,RS24*%
X54612500Y-78312500D03*
X51687500Y-78312500D03*
%TD*%
D17*
%TO.C,RS28*%
X83700000Y-82507500D03*
X83700000Y-79582500D03*
%TD*%
D11*
%TO.C,D1V5-2*%
X40425000Y-98250000D03*
X40425000Y-101050000D03*
%TD*%
D17*
%TO.C,RS21*%
X83700000Y-63507500D03*
X83700000Y-60582500D03*
%TD*%
D10*
%TO.C,Cin_1V5*%
X30875000Y-98225000D03*
X30875000Y-103625000D03*
%TD*%
D16*
%TO.C,RS25*%
X52225000Y-82122500D03*
X52225000Y-85047500D03*
%TD*%
D12*
%TO.C,C5*%
X37750000Y-28325000D03*
X34800000Y-28325000D03*
%TD*%
D18*
%TO.C,U5*%
X34750000Y-59312500D03*
X34750000Y-60582500D03*
X34750000Y-61852500D03*
X34750000Y-63122500D03*
X39700000Y-63122500D03*
X39700000Y-61852500D03*
X39700000Y-60582500D03*
X39700000Y-59312500D03*
%TD*%
%TO.C,U7*%
X34775000Y-78312500D03*
X34775000Y-79582500D03*
X34775000Y-80852500D03*
X34775000Y-82122500D03*
X39725000Y-82122500D03*
X39725000Y-80852500D03*
X39725000Y-79582500D03*
X39725000Y-78312500D03*
%TD*%
D16*
%TO.C,RS19*%
X57025000Y-63122500D03*
X57025000Y-66047500D03*
%TD*%
%TO.C,RS2*%
X43750000Y-22557500D03*
X43750000Y-25482500D03*
%TD*%
D11*
%TO.C,DS7*%
X74400000Y-79582500D03*
X71600000Y-79582500D03*
%TD*%
D18*
%TO.C,U3*%
X34750000Y-40287500D03*
X34750000Y-41557500D03*
X34750000Y-42827500D03*
X34750000Y-44097500D03*
X39700000Y-44097500D03*
X39700000Y-42827500D03*
X39700000Y-41557500D03*
X39700000Y-40287500D03*
%TD*%
D12*
%TO.C,C3*%
X64875000Y-28325000D03*
X61925000Y-28325000D03*
%TD*%
D11*
%TO.C,DS3*%
X74400000Y-41557500D03*
X71600000Y-41557500D03*
%TD*%
D13*
%TO.C,RS1*%
X36162500Y-18325000D03*
X33237500Y-18325000D03*
%TD*%
D14*
%TO.C,CS2*%
X47875000Y-41557500D03*
X47875000Y-44507500D03*
%TD*%
D12*
%TO.C,C11*%
X69825000Y-56250000D03*
X66875000Y-56250000D03*
%TD*%
D15*
%TO.C,DS4*%
X74600000Y-46065000D03*
X71100000Y-46065000D03*
%TD*%
D18*
%TO.C,U2*%
X61925000Y-21287500D03*
X61925000Y-22557500D03*
X61925000Y-23827500D03*
X61925000Y-25097500D03*
X66875000Y-25097500D03*
X66875000Y-23827500D03*
X66875000Y-22557500D03*
X66875000Y-21287500D03*
%TD*%
D13*
%TO.C,RS22*%
X36287500Y-75250000D03*
X33362500Y-75250000D03*
%TD*%
D12*
%TO.C,C12*%
X64875000Y-66300000D03*
X61925000Y-66300000D03*
%TD*%
D16*
%TO.C,RS26*%
X57025000Y-82122500D03*
X57025000Y-85047500D03*
%TD*%
D18*
%TO.C,U8*%
X61925000Y-78312500D03*
X61925000Y-79582500D03*
X61925000Y-80852500D03*
X61925000Y-82122500D03*
X66875000Y-82122500D03*
X66875000Y-80852500D03*
X66875000Y-79582500D03*
X66875000Y-78312500D03*
%TD*%
D12*
%TO.C,C13*%
X42675000Y-75250000D03*
X39725000Y-75250000D03*
%TD*%
D14*
%TO.C,CS3*%
X47875000Y-60582500D03*
X47875000Y-63532500D03*
%TD*%
D15*
%TO.C,DS8*%
X74600000Y-83815000D03*
X71100000Y-83815000D03*
%TD*%
D18*
%TO.C,U6*%
X61925000Y-59312500D03*
X61925000Y-60582500D03*
X61925000Y-61852500D03*
X61925000Y-63122500D03*
X66875000Y-63122500D03*
X66875000Y-61852500D03*
X66875000Y-60582500D03*
X66875000Y-59312500D03*
%TD*%
D16*
%TO.C,RS16*%
X43750000Y-60582500D03*
X43750000Y-63507500D03*
%TD*%
D13*
%TO.C,RS20*%
X61925000Y-56250000D03*
X59000000Y-56250000D03*
%TD*%
D14*
%TO.C,CS4*%
X47875000Y-79582500D03*
X47875000Y-82532500D03*
%TD*%
D18*
%TO.C,U4*%
X61925000Y-40287500D03*
X61925000Y-41557500D03*
X61925000Y-42827500D03*
X61925000Y-44097500D03*
X66875000Y-44097500D03*
X66875000Y-42827500D03*
X66875000Y-41557500D03*
X66875000Y-40287500D03*
%TD*%
D16*
%TO.C,RS18*%
X52225000Y-63122500D03*
X52225000Y-66047500D03*
%TD*%
%TO.C,RS12*%
X57025000Y-44097500D03*
X57025000Y-47022500D03*
%TD*%
M02*
