M48
; DRILL file KiCad 10.0.4 date 2026-07-30T22:03:19
; FORMAT={-:-/ absolute / metric / decimal}
; #@! TF.CreationDate,2026-07-30T22:03:19+05:30
; #@! TF.GenerationSoftware,Kicad,Pcbnew,10.0.4
; #@! TF.FileFunction,Plated,1,4,PTH
FMAT,2
METRIC
; #@! TA.AperFunction,Plated,PTH,ViaDrill
T1C0.300
; #@! TA.AperFunction,Plated,PTH,ViaDrill
T2C0.400
; #@! TA.AperFunction,Plated,PTH,ComponentDrill
T3C0.800
; #@! TA.AperFunction,Plated,PTH,ComponentDrill
T4C1.000
; #@! TA.AperFunction,Plated,PTH,ComponentDrill
T5C1.200
%
G90
G05
T1
X32.0Y-85.1
X32.5Y-28.325
X32.5Y-47.125
X32.5Y-66.3
X60.0Y-28.325
X60.0Y-47.125
X60.0Y-66.3
X60.0Y-85.1
T2
X39.4Y-28.4
X39.4Y-47.0
X39.4Y-66.4
X39.6Y-85.0
X39.9Y-26.75
X39.95Y-45.65
X40.5Y-64.95
X40.8Y-84.05
X44.2Y-56.4
X44.4Y-18.2
X44.4Y-37.2
X44.4Y-75.2
X49.55Y-27.9
X49.8Y-85.2
X50.0Y-66.2
X50.2Y-47.0
X66.6Y-47.0
X66.6Y-85.0
X66.8Y-28.2
X66.8Y-66.4
X69.2Y-26.8
X69.2Y-65.0
X69.4Y-46.2
X69.4Y-83.8
X69.8Y-35.0
X69.8Y-73.2
X69.85Y-15.95
X70.0Y-54.2
X80.4Y-104.8
X85.6Y-27.8
X85.65Y-25.55
X85.85Y-46.95
X85.9Y-65.8
X85.95Y-44.55
X86.0Y-82.6
X86.0Y-84.55
X86.05Y-63.5
X90.2Y-96.2
T3
X47.2Y-105.05
X49.74Y-105.05
X52.28Y-105.05
T4
X16.46Y-47.355
X16.46Y-49.895
X16.46Y-52.435
X16.46Y-54.975
X16.46Y-57.515
X16.46Y-60.055
X19.0Y-47.355
X19.0Y-49.895
X19.0Y-52.435
X19.0Y-54.975
X19.0Y-57.515
X19.0Y-60.055
X29.725Y-23.828
X29.725Y-42.828
X29.725Y-61.852
X29.725Y-80.852
X70.425Y-32.2
X70.425Y-51.5
X70.425Y-70.2
X70.425Y-89.6
X72.965Y-32.2
X72.965Y-51.5
X72.965Y-70.2
X72.965Y-89.6
X74.325Y-98.2
X74.325Y-100.74
X74.325Y-103.28
X79.5Y-18.11
X79.5Y-20.65
X79.5Y-24.225
X79.5Y-26.765
X79.5Y-37.385
X79.5Y-39.925
X79.5Y-43.525
X79.5Y-46.065
X79.5Y-56.31
X79.5Y-58.85
X79.5Y-62.4
X79.5Y-64.94
X79.5Y-75.16
X79.5Y-77.7
X79.5Y-81.275
X79.5Y-83.815
X80.55Y-96.25
X94.6Y-49.04
X94.6Y-51.58
X94.6Y-54.12
X94.6Y-56.66
X94.6Y-59.2
X97.14Y-49.04
X97.14Y-51.58
X97.14Y-54.12
X97.14Y-56.66
X97.14Y-59.2
T5
X16.925Y-74.925
X16.925Y-77.465
X16.925Y-80.005
X66.66Y-105.2
X69.2Y-105.2
M30
