%TF.GenerationSoftware,KiCad,Pcbnew,10.0.4*%
%TF.CreationDate,2026-07-30T22:03:17+05:30*%
%TF.ProjectId,Signal Conditioning Circuit 4 IO,5369676e-616c-4204-936f-6e646974696f,rev?*%
%TF.SameCoordinates,Original*%
%TF.FileFunction,Copper,L3,Inr*%
%TF.FilePolarity,Positive*%
%FSLAX46Y46*%
G04 Gerber Fmt 4.6, Leading zero omitted, Abs format (unit mm)*
G04 Created by KiCad (PCBNEW 10.0.4) date 2026-07-30 22:03:17*
%MOMM*%
%LPD*%
G01*
G04 APERTURE LIST*
G04 Aperture macros list*
%AMRoundRect*
0 Rectangle with rounded corners*
0 $1 Rounding radius*
0 $2 $3 $4 $5 $6 $7 $8 $9 X,Y pos of 4 corners*
0 Add a 4 corners polygon primitive as box body*
4,1,4,$2,$3,$4,$5,$6,$7,$8,$9,$2,$3,0*
0 Add four circle primitives for the rounded corners*
1,1,$1+$1,$2,$3*
1,1,$1+$1,$4,$5*
1,1,$1+$1,$6,$7*
1,1,$1+$1,$8,$9*
0 Add four rect primitives between the rounded corners*
20,1,$1+$1,$2,$3,$4,$5,0*
20,1,$1+$1,$4,$5,$6,$7,0*
20,1,$1+$1,$6,$7,$8,$9,0*
20,1,$1+$1,$8,$9,$2,$3,0*%
G04 Aperture macros list end*
%TA.AperFunction,ComponentPad*%
%ADD10R,1.700000X1.700000*%
%TD*%
%TA.AperFunction,ComponentPad*%
%ADD11C,1.700000*%
%TD*%
%TA.AperFunction,ComponentPad*%
%ADD12C,2.000000*%
%TD*%
%TA.AperFunction,ComponentPad*%
%ADD13C,1.440000*%
%TD*%
%TA.AperFunction,ComponentPad*%
%ADD14RoundRect,0.250000X-0.750000X-0.750000X0.750000X-0.750000X0.750000X0.750000X-0.750000X0.750000X0*%
%TD*%
%TA.AperFunction,ComponentPad*%
%ADD15RoundRect,0.250000X0.600000X0.600000X-0.600000X0.600000X-0.600000X-0.600000X0.600000X-0.600000X0*%
%TD*%
%TA.AperFunction,ComponentPad*%
%ADD16RoundRect,0.250000X-0.750000X0.750000X-0.750000X-0.750000X0.750000X-0.750000X0.750000X0.750000X0*%
%TD*%
%TA.AperFunction,ViaPad*%
%ADD17C,0.900000*%
%TD*%
%TA.AperFunction,ViaPad*%
%ADD18C,1.000000*%
%TD*%
G04 APERTURE END LIST*
D10*
%TO.N,Signal_1_Out*%
%TO.C,SW9*%
X79500000Y-24225000D03*
D11*
%TO.N,Net-(DS2-K)*%
X79500000Y-26765000D03*
%TD*%
D10*
%TO.N,Net-(RS26-Pad2)*%
%TO.C,SW4*%
X70425000Y-89600000D03*
D11*
%TO.N,1V51*%
X72965000Y-89600000D03*
%TD*%
D10*
%TO.N,Signal_3_Out*%
%TO.C,SW11*%
X79500000Y-58850000D03*
D11*
%TO.N,Net-(DS5-A)*%
X79500000Y-56310000D03*
%TD*%
D12*
%TO.N,Signal_3*%
%TO.C,TPS13*%
X29725000Y-61852500D03*
%TD*%
D13*
%TO.N,unconnected-(RV1V5-Pad1)*%
%TO.C,RV1V5*%
X52280000Y-105050000D03*
%TO.N,GND*%
X49740000Y-105050000D03*
%TO.N,/1v5ADJ*%
X47200000Y-105050000D03*
%TD*%
D10*
%TO.N,Net-(RS12-Pad2)*%
%TO.C,SW1*%
X70425000Y-51500000D03*
D11*
%TO.N,1V51*%
X72965000Y-51500000D03*
%TD*%
D10*
%TO.N,Signal_4_Out*%
%TO.C,SW12*%
X79500000Y-81275000D03*
D11*
%TO.N,Net-(DS8-K)*%
X79500000Y-83815000D03*
%TD*%
D10*
%TO.N,Signal_3_Out*%
%TO.C,SW7*%
X79500000Y-62400000D03*
D11*
%TO.N,Net-(DS6-K)*%
X79500000Y-64940000D03*
%TD*%
D12*
%TO.N,Signal_2*%
%TO.C,TPS7*%
X29725000Y-42827500D03*
%TD*%
D10*
%TO.N,Net-(RS6-Pad2)*%
%TO.C,SW2*%
X70425000Y-32200000D03*
D11*
%TO.N,1V51*%
X72965000Y-32200000D03*
%TD*%
D10*
%TO.N,Signal_1_Out*%
%TO.C,SW5*%
X79500000Y-20650000D03*
D11*
%TO.N,Net-(DS1-A)*%
X79500000Y-18110000D03*
%TD*%
D14*
%TO.N,GND*%
%TO.C,J1V5*%
X66660000Y-105200000D03*
D12*
%TO.N,Net-(J1V5-Pin_2)*%
X69200000Y-105200000D03*
%TD*%
D15*
%TO.N,GND*%
%TO.C,J1*%
X97140000Y-59200000D03*
D11*
%TO.N,1V51*%
X94600000Y-59200000D03*
%TO.N,GND*%
X97140000Y-56660000D03*
%TO.N,Signal_4_Out*%
X94600000Y-56660000D03*
%TO.N,GND*%
X97140000Y-54120000D03*
%TO.N,Signal_3_Out*%
X94600000Y-54120000D03*
%TO.N,GND*%
X97140000Y-51580000D03*
%TO.N,Signal_2_Out*%
X94600000Y-51580000D03*
%TO.N,GND*%
X97140000Y-49040000D03*
%TO.N,Signal_1_Out*%
X94600000Y-49040000D03*
%TD*%
D10*
%TO.N,Signal_4_Out*%
%TO.C,SW8*%
X79500000Y-77700000D03*
D11*
%TO.N,Net-(DS7-A)*%
X79500000Y-75160000D03*
%TD*%
D10*
%TO.N,Signal_2_Out*%
%TO.C,SW6*%
X79500000Y-39925000D03*
D11*
%TO.N,Net-(DS3-A)*%
X79500000Y-37385000D03*
%TD*%
D12*
%TO.N,1V51*%
%TO.C,TPS2*%
X80550000Y-96250000D03*
%TD*%
%TO.N,Signal_4*%
%TO.C,TPS19*%
X29725000Y-80852500D03*
%TD*%
D16*
%TO.N,-15V*%
%TO.C,Aux1*%
X16925000Y-74925000D03*
D12*
%TO.N,GND*%
X16925000Y-77465000D03*
%TO.N,+15V*%
X16925000Y-80005000D03*
%TD*%
D10*
%TO.N,Net-(J1V5-Pin_2)*%
%TO.C,JP1V5*%
X74325000Y-103280000D03*
D11*
%TO.N,1V5*%
X74325000Y-100740000D03*
%TO.N,/1v5LM*%
X74325000Y-98200000D03*
%TD*%
D12*
%TO.N,Signal_1*%
%TO.C,TPS1*%
X29725000Y-23827500D03*
%TD*%
D15*
%TO.N,GND*%
%TO.C,Sensor_In1*%
X19000000Y-60055000D03*
D11*
%TO.N,+15V*%
X16460000Y-60055000D03*
%TO.N,GND*%
X19000000Y-57515000D03*
%TO.N,Signal_4*%
X16460000Y-57515000D03*
%TO.N,GND*%
X19000000Y-54975000D03*
%TO.N,Signal_3*%
X16460000Y-54975000D03*
%TO.N,GND*%
X19000000Y-52435000D03*
%TO.N,Signal_2*%
X16460000Y-52435000D03*
%TO.N,GND*%
X19000000Y-49895000D03*
%TO.N,Signal_1*%
X16460000Y-49895000D03*
%TO.N,GND*%
X19000000Y-47355000D03*
%TO.N,-15V*%
X16460000Y-47355000D03*
%TD*%
D10*
%TO.N,Net-(RS19-Pad2)*%
%TO.C,SW3*%
X70425000Y-70200000D03*
D11*
%TO.N,1V51*%
X72965000Y-70200000D03*
%TD*%
D10*
%TO.N,Signal_2_Out*%
%TO.C,SW10*%
X79500000Y-43525000D03*
D11*
%TO.N,Net-(DS4-K)*%
X79500000Y-46065000D03*
%TD*%
D17*
%TO.N,GND*%
X40800000Y-84050000D03*
X49550000Y-27900000D03*
X70000000Y-54200000D03*
X90200000Y-96200000D03*
X69400000Y-46200000D03*
X66600000Y-47000000D03*
X85850000Y-46950000D03*
X44400000Y-18200000D03*
X66600000Y-85000000D03*
X66800000Y-28200000D03*
X66800000Y-66400000D03*
X44400000Y-75200000D03*
X69200000Y-26800000D03*
X39900000Y-26750000D03*
X69800000Y-73200000D03*
X39400000Y-47000000D03*
X39400000Y-66400000D03*
X80400000Y-104800000D03*
X39950000Y-45650000D03*
X50200000Y-47000000D03*
X85900000Y-65800000D03*
X49800000Y-85200000D03*
X85950000Y-44550000D03*
X44200000Y-56400000D03*
X39400000Y-28400000D03*
X85600000Y-27800000D03*
X69850000Y-15950000D03*
X86050000Y-63500000D03*
X44400000Y-37200000D03*
X69400000Y-83800000D03*
X39600000Y-85000000D03*
X86000000Y-84550000D03*
X85650000Y-25550000D03*
X69800000Y-35000000D03*
X40500000Y-64950000D03*
X50000000Y-66200000D03*
X69200000Y-65000000D03*
X86000000Y-82600000D03*
D18*
%TO.N,-15V*%
X60000000Y-47125000D03*
X32500000Y-28325000D03*
X32500000Y-66300000D03*
X60000000Y-28325000D03*
X32500000Y-47125000D03*
X32000000Y-85100000D03*
X60000000Y-85100000D03*
X60000000Y-66300000D03*
%TD*%
%TA.AperFunction,Conductor*%
%TO.N,GND*%
G36*
X98267168Y-13500617D02*
G01*
X98651239Y-13517386D01*
X98661971Y-13518326D01*
X99040429Y-13568150D01*
X99051067Y-13570025D01*
X99423745Y-13652647D01*
X99434186Y-13655445D01*
X99798231Y-13770227D01*
X99808377Y-13773920D01*
X100161044Y-13920000D01*
X100170835Y-13924566D01*
X100509408Y-14100816D01*
X100518776Y-14106224D01*
X100840710Y-14311318D01*
X100849571Y-14317523D01*
X101152396Y-14549889D01*
X101160683Y-14556843D01*
X101442101Y-14814715D01*
X101449750Y-14822364D01*
X101707622Y-15103782D01*
X101714576Y-15112069D01*
X101946942Y-15414894D01*
X101953147Y-15423755D01*
X102158241Y-15745689D01*
X102163649Y-15755057D01*
X102339896Y-16093623D01*
X102344468Y-16103427D01*
X102490541Y-16456078D01*
X102494241Y-16466244D01*
X102609019Y-16830276D01*
X102611819Y-16840724D01*
X102694438Y-17213390D01*
X102696316Y-17224044D01*
X102746137Y-17602472D01*
X102747080Y-17613248D01*
X102763848Y-17997297D01*
X102763966Y-18002650D01*
X102763966Y-18065892D01*
X102763994Y-18066000D01*
X102763998Y-18074044D01*
X102763995Y-18074053D01*
X102763998Y-18074100D01*
X102763966Y-104934107D01*
X102763966Y-104997293D01*
X102763848Y-105002702D01*
X102747080Y-105386751D01*
X102746137Y-105397527D01*
X102696316Y-105775955D01*
X102694438Y-105786609D01*
X102611819Y-106159275D01*
X102609019Y-106169723D01*
X102494241Y-106533755D01*
X102490541Y-106543921D01*
X102344468Y-106896572D01*
X102339896Y-106906376D01*
X102163649Y-107244942D01*
X102158241Y-107254310D01*
X101953147Y-107576244D01*
X101946942Y-107585105D01*
X101714576Y-107887930D01*
X101707622Y-107896217D01*
X101449750Y-108177635D01*
X101442101Y-108185284D01*
X101160683Y-108443156D01*
X101152396Y-108450110D01*
X100849571Y-108682476D01*
X100840710Y-108688681D01*
X100518776Y-108893775D01*
X100509408Y-108899183D01*
X100170842Y-109075430D01*
X100161038Y-109080002D01*
X99808387Y-109226075D01*
X99798221Y-109229775D01*
X99434189Y-109344553D01*
X99423741Y-109347353D01*
X99051075Y-109429972D01*
X99040421Y-109431850D01*
X98661993Y-109481671D01*
X98651217Y-109482614D01*
X98267169Y-109499382D01*
X98261760Y-109499500D01*
X17538240Y-109499500D01*
X17532831Y-109499382D01*
X17148782Y-109482614D01*
X17138008Y-109481671D01*
X17075541Y-109473447D01*
X16759578Y-109431850D01*
X16748924Y-109429972D01*
X16376258Y-109347353D01*
X16365810Y-109344553D01*
X16001778Y-109229775D01*
X15991612Y-109226075D01*
X15638961Y-109080002D01*
X15629157Y-109075430D01*
X15290591Y-108899183D01*
X15281223Y-108893775D01*
X14959289Y-108688681D01*
X14950428Y-108682476D01*
X14647603Y-108450110D01*
X14639316Y-108443156D01*
X14357898Y-108185284D01*
X14350249Y-108177635D01*
X14092377Y-107896217D01*
X14085423Y-107887930D01*
X13853057Y-107585105D01*
X13846852Y-107576244D01*
X13641758Y-107254310D01*
X13636350Y-107244942D01*
X13491282Y-106966270D01*
X13460100Y-106906369D01*
X13455531Y-106896572D01*
X13309454Y-106543911D01*
X13305758Y-106533755D01*
X13297411Y-106507282D01*
X13190979Y-106169720D01*
X13188180Y-106159275D01*
X13173679Y-106093864D01*
X13105559Y-105786601D01*
X13103683Y-105775955D01*
X13091176Y-105680953D01*
X13053860Y-105397505D01*
X13052920Y-105386773D01*
X13036152Y-105002702D01*
X13036034Y-104997293D01*
X13036034Y-104868872D01*
X15535034Y-104868872D01*
X15535034Y-105131127D01*
X15547723Y-105227502D01*
X15569264Y-105391116D01*
X15637136Y-105644418D01*
X15637139Y-105644428D01*
X15737487Y-105886690D01*
X15737492Y-105886700D01*
X15868609Y-106113803D01*
X16028252Y-106321851D01*
X16028260Y-106321860D01*
X16213674Y-106507274D01*
X16213682Y-106507281D01*
X16421730Y-106666924D01*
X16648833Y-106798041D01*
X16648843Y-106798046D01*
X16891105Y-106898394D01*
X16891115Y-106898398D01*
X17144418Y-106966270D01*
X17404414Y-107000500D01*
X17404421Y-107000500D01*
X17666647Y-107000500D01*
X17666654Y-107000500D01*
X17926650Y-106966270D01*
X18179953Y-106898398D01*
X18422231Y-106798043D01*
X18649337Y-106666924D01*
X18857385Y-106507282D01*
X18857389Y-106507277D01*
X18857394Y-106507274D01*
X19042808Y-106321860D01*
X19042811Y-106321855D01*
X19042816Y-106321851D01*
X19202458Y-106113803D01*
X19333577Y-105886697D01*
X19433932Y-105644419D01*
X19501804Y-105391116D01*
X19536034Y-105131120D01*
X19536034Y-104953945D01*
X45979500Y-104953945D01*
X45979500Y-105146054D01*
X46009553Y-105335802D01*
X46068916Y-105518506D01*
X46133072Y-105644418D01*
X46156135Y-105689681D01*
X46269055Y-105845102D01*
X46404898Y-105980945D01*
X46560319Y-106093865D01*
X46630751Y-106129752D01*
X46731493Y-106181083D01*
X46822845Y-106210764D01*
X46914199Y-106240447D01*
X47103945Y-106270500D01*
X47103946Y-106270500D01*
X47296054Y-106270500D01*
X47296055Y-106270500D01*
X47485801Y-106240447D01*
X47668509Y-106181082D01*
X47839681Y-106093865D01*
X47995102Y-105980945D01*
X48130945Y-105845102D01*
X48243865Y-105689681D01*
X48331082Y-105518509D01*
X48390447Y-105335801D01*
X48420500Y-105146055D01*
X48420500Y-104953945D01*
X51059500Y-104953945D01*
X51059500Y-105146054D01*
X51089553Y-105335802D01*
X51148916Y-105518506D01*
X51213072Y-105644418D01*
X51236135Y-105689681D01*
X51349055Y-105845102D01*
X51484898Y-105980945D01*
X51640319Y-106093865D01*
X51710751Y-106129752D01*
X51811493Y-106181083D01*
X51902845Y-106210764D01*
X51994199Y-106240447D01*
X52183945Y-106270500D01*
X52183946Y-106270500D01*
X52376054Y-106270500D01*
X52376055Y-106270500D01*
X52565801Y-106240447D01*
X52748509Y-106181082D01*
X52919681Y-106093865D01*
X53075102Y-105980945D01*
X53210945Y-105845102D01*
X53323865Y-105689681D01*
X53411082Y-105518509D01*
X53470447Y-105335801D01*
X53500500Y-105146055D01*
X53500500Y-105081902D01*
X67699500Y-105081902D01*
X67699500Y-105318097D01*
X67736446Y-105551368D01*
X67809433Y-105775996D01*
X67913859Y-105980942D01*
X67916657Y-105986433D01*
X68055483Y-106177510D01*
X68222490Y-106344517D01*
X68413567Y-106483343D01*
X68460548Y-106507281D01*
X68624003Y-106590566D01*
X68624005Y-106590566D01*
X68624008Y-106590568D01*
X68744412Y-106629689D01*
X68848631Y-106663553D01*
X69081903Y-106700500D01*
X69081908Y-106700500D01*
X69318097Y-106700500D01*
X69551368Y-106663553D01*
X69775992Y-106590568D01*
X69986433Y-106483343D01*
X70177510Y-106344517D01*
X70344517Y-106177510D01*
X70483343Y-105986433D01*
X70590568Y-105775992D01*
X70663553Y-105551368D01*
X70687919Y-105397527D01*
X70700500Y-105318097D01*
X70700500Y-105081902D01*
X70669190Y-104884219D01*
X70666758Y-104868872D01*
X96308145Y-104868872D01*
X96308145Y-105131127D01*
X96320834Y-105227502D01*
X96342375Y-105391116D01*
X96410247Y-105644418D01*
X96410250Y-105644428D01*
X96510598Y-105886690D01*
X96510603Y-105886700D01*
X96641720Y-106113803D01*
X96801363Y-106321851D01*
X96801371Y-106321860D01*
X96986785Y-106507274D01*
X96986793Y-106507281D01*
X97194841Y-106666924D01*
X97421944Y-106798041D01*
X97421954Y-106798046D01*
X97664216Y-106898394D01*
X97664226Y-106898398D01*
X97917529Y-106966270D01*
X98177525Y-107000500D01*
X98177532Y-107000500D01*
X98439758Y-107000500D01*
X98439765Y-107000500D01*
X98699761Y-106966270D01*
X98953064Y-106898398D01*
X99195342Y-106798043D01*
X99422448Y-106666924D01*
X99630496Y-106507282D01*
X99630500Y-106507277D01*
X99630505Y-106507274D01*
X99815919Y-106321860D01*
X99815922Y-106321855D01*
X99815927Y-106321851D01*
X99975569Y-106113803D01*
X100106688Y-105886697D01*
X100207043Y-105644419D01*
X100274915Y-105391116D01*
X100309145Y-105131120D01*
X100309145Y-104868880D01*
X100274915Y-104608884D01*
X100207043Y-104355581D01*
X100165338Y-104254896D01*
X100106691Y-104113309D01*
X100106686Y-104113299D01*
X99975569Y-103886196D01*
X99815926Y-103678148D01*
X99815919Y-103678140D01*
X99630505Y-103492726D01*
X99630496Y-103492718D01*
X99422448Y-103333075D01*
X99195345Y-103201958D01*
X99195335Y-103201953D01*
X98953073Y-103101605D01*
X98953066Y-103101603D01*
X98953064Y-103101602D01*
X98699761Y-103033730D01*
X98641984Y-103026123D01*
X98439772Y-102999500D01*
X98439765Y-102999500D01*
X98177525Y-102999500D01*
X98177517Y-102999500D01*
X97946417Y-103029926D01*
X97917529Y-103033730D01*
X97664226Y-103101602D01*
X97664216Y-103101605D01*
X97421954Y-103201953D01*
X97421944Y-103201958D01*
X97194841Y-103333075D01*
X96986793Y-103492718D01*
X96801363Y-103678148D01*
X96641720Y-103886196D01*
X96510603Y-104113299D01*
X96510598Y-104113309D01*
X96410250Y-104355571D01*
X96410247Y-104355581D01*
X96342375Y-104608884D01*
X96340384Y-104624008D01*
X96308145Y-104868872D01*
X70666758Y-104868872D01*
X70666514Y-104867331D01*
X70663553Y-104848632D01*
X70590568Y-104624008D01*
X70590566Y-104624005D01*
X70590566Y-104624003D01*
X70483342Y-104413566D01*
X70453383Y-104372331D01*
X70344517Y-104222490D01*
X70177510Y-104055483D01*
X69986433Y-103916657D01*
X69926650Y-103886196D01*
X69775996Y-103809433D01*
X69551368Y-103736446D01*
X69318097Y-103699500D01*
X69318092Y-103699500D01*
X69081908Y-103699500D01*
X69081903Y-103699500D01*
X68848631Y-103736446D01*
X68624003Y-103809433D01*
X68413566Y-103916657D01*
X68304550Y-103995862D01*
X68222490Y-104055483D01*
X68222488Y-104055485D01*
X68222487Y-104055485D01*
X68055485Y-104222487D01*
X68055485Y-104222488D01*
X68055483Y-104222490D01*
X68031939Y-104254896D01*
X67916657Y-104413566D01*
X67809433Y-104624003D01*
X67736446Y-104848631D01*
X67699500Y-105081902D01*
X53500500Y-105081902D01*
X53500500Y-104953945D01*
X53470447Y-104764199D01*
X53427005Y-104630498D01*
X53411083Y-104581493D01*
X53363213Y-104487544D01*
X53323865Y-104410319D01*
X53210945Y-104254898D01*
X53075102Y-104119055D01*
X52919681Y-104006135D01*
X52748506Y-103918916D01*
X52565802Y-103859553D01*
X52470928Y-103844526D01*
X52376055Y-103829500D01*
X52183945Y-103829500D01*
X52120696Y-103839517D01*
X51994197Y-103859553D01*
X51811493Y-103918916D01*
X51640318Y-104006135D01*
X51551645Y-104070560D01*
X51484898Y-104119055D01*
X51484896Y-104119057D01*
X51484895Y-104119057D01*
X51349057Y-104254895D01*
X51349057Y-104254896D01*
X51349055Y-104254898D01*
X51300560Y-104321645D01*
X51236135Y-104410318D01*
X51148916Y-104581493D01*
X51089553Y-104764197D01*
X51059500Y-104953945D01*
X48420500Y-104953945D01*
X48390447Y-104764199D01*
X48347005Y-104630498D01*
X48331083Y-104581493D01*
X48283213Y-104487544D01*
X48243865Y-104410319D01*
X48130945Y-104254898D01*
X47995102Y-104119055D01*
X47839681Y-104006135D01*
X47668506Y-103918916D01*
X47485802Y-103859553D01*
X47390928Y-103844526D01*
X47296055Y-103829500D01*
X47103945Y-103829500D01*
X47040696Y-103839517D01*
X46914197Y-103859553D01*
X46731493Y-103918916D01*
X46560318Y-104006135D01*
X46471645Y-104070560D01*
X46404898Y-104119055D01*
X46404896Y-104119057D01*
X46404895Y-104119057D01*
X46269057Y-104254895D01*
X46269057Y-104254896D01*
X46269055Y-104254898D01*
X46220560Y-104321645D01*
X46156135Y-104410318D01*
X46068916Y-104581493D01*
X46009553Y-104764197D01*
X45979500Y-104953945D01*
X19536034Y-104953945D01*
X19536034Y-104868880D01*
X19501804Y-104608884D01*
X19433932Y-104355581D01*
X19392227Y-104254896D01*
X19333580Y-104113309D01*
X19333575Y-104113299D01*
X19202458Y-103886196D01*
X19042815Y-103678148D01*
X19042808Y-103678140D01*
X18857394Y-103492726D01*
X18857385Y-103492718D01*
X18649337Y-103333075D01*
X18422234Y-103201958D01*
X18422224Y-103201953D01*
X18179962Y-103101605D01*
X18179955Y-103101603D01*
X18179953Y-103101602D01*
X17926650Y-103033730D01*
X17868873Y-103026123D01*
X17666661Y-102999500D01*
X17666654Y-102999500D01*
X17404414Y-102999500D01*
X17404406Y-102999500D01*
X17173306Y-103029926D01*
X17144418Y-103033730D01*
X16891115Y-103101602D01*
X16891105Y-103101605D01*
X16648843Y-103201953D01*
X16648833Y-103201958D01*
X16421730Y-103333075D01*
X16213682Y-103492718D01*
X16028252Y-103678148D01*
X15868609Y-103886196D01*
X15737492Y-104113299D01*
X15737487Y-104113309D01*
X15637139Y-104355571D01*
X15637136Y-104355581D01*
X15569264Y-104608884D01*
X15567273Y-104624008D01*
X15535034Y-104868872D01*
X13036034Y-104868872D01*
X13036034Y-98093713D01*
X72974500Y-98093713D01*
X72974500Y-98306286D01*
X73007753Y-98516239D01*
X73073444Y-98718414D01*
X73169951Y-98907820D01*
X73294890Y-99079786D01*
X73445213Y-99230109D01*
X73617182Y-99355050D01*
X73625946Y-99359516D01*
X73676742Y-99407491D01*
X73693536Y-99475312D01*
X73670998Y-99541447D01*
X73625946Y-99580484D01*
X73617182Y-99584949D01*
X73445213Y-99709890D01*
X73294890Y-99860213D01*
X73169951Y-100032179D01*
X73073444Y-100221585D01*
X73007753Y-100423760D01*
X72974500Y-100633713D01*
X72974500Y-100846286D01*
X73007753Y-101056239D01*
X73073444Y-101258414D01*
X73169951Y-101447820D01*
X73294890Y-101619786D01*
X73408430Y-101733326D01*
X73441915Y-101794649D01*
X73436931Y-101864341D01*
X73395059Y-101920274D01*
X73364083Y-101937189D01*
X73232669Y-101986203D01*
X73232664Y-101986206D01*
X73117455Y-102072452D01*
X73117452Y-102072455D01*
X73031206Y-102187664D01*
X73031202Y-102187671D01*
X72980908Y-102322517D01*
X72974501Y-102382116D01*
X72974501Y-102382123D01*
X72974500Y-102382135D01*
X72974500Y-104177870D01*
X72974501Y-104177876D01*
X72980908Y-104237483D01*
X73031202Y-104372328D01*
X73031206Y-104372335D01*
X73117452Y-104487544D01*
X73117455Y-104487547D01*
X73232664Y-104573793D01*
X73232671Y-104573797D01*
X73367517Y-104624091D01*
X73367516Y-104624091D01*
X73374444Y-104624835D01*
X73427127Y-104630500D01*
X75222872Y-104630499D01*
X75282483Y-104624091D01*
X75417331Y-104573796D01*
X75532546Y-104487546D01*
X75618796Y-104372331D01*
X75669091Y-104237483D01*
X75675500Y-104177873D01*
X75675499Y-102382128D01*
X75669091Y-102322517D01*
X75618796Y-102187669D01*
X75618795Y-102187668D01*
X75618793Y-102187664D01*
X75532547Y-102072455D01*
X75532544Y-102072452D01*
X75417335Y-101986206D01*
X75417328Y-101986202D01*
X75285917Y-101937189D01*
X75229983Y-101895318D01*
X75205566Y-101829853D01*
X75220418Y-101761580D01*
X75241563Y-101733332D01*
X75355104Y-101619792D01*
X75480051Y-101447816D01*
X75576557Y-101258412D01*
X75642246Y-101056243D01*
X75675500Y-100846287D01*
X75675500Y-100633713D01*
X75642246Y-100423757D01*
X75576557Y-100221588D01*
X75480051Y-100032184D01*
X75480049Y-100032181D01*
X75480048Y-100032179D01*
X75355109Y-99860213D01*
X75204786Y-99709890D01*
X75032820Y-99584951D01*
X75032115Y-99584591D01*
X75024054Y-99580485D01*
X74973259Y-99532512D01*
X74956463Y-99464692D01*
X74978999Y-99398556D01*
X75024054Y-99359515D01*
X75032816Y-99355051D01*
X75054789Y-99339086D01*
X75204786Y-99230109D01*
X75204788Y-99230106D01*
X75204792Y-99230104D01*
X75355104Y-99079792D01*
X75355106Y-99079788D01*
X75355109Y-99079786D01*
X75480048Y-98907820D01*
X75480047Y-98907820D01*
X75480051Y-98907816D01*
X75576557Y-98718412D01*
X75642246Y-98516243D01*
X75675500Y-98306287D01*
X75675500Y-98093713D01*
X75642246Y-97883757D01*
X75576557Y-97681588D01*
X75480051Y-97492184D01*
X75480049Y-97492181D01*
X75480048Y-97492179D01*
X75355109Y-97320213D01*
X75204786Y-97169890D01*
X75032820Y-97044951D01*
X74843414Y-96948444D01*
X74843413Y-96948443D01*
X74843412Y-96948443D01*
X74641243Y-96882754D01*
X74641241Y-96882753D01*
X74641240Y-96882753D01*
X74479957Y-96857208D01*
X74431287Y-96849500D01*
X74218713Y-96849500D01*
X74170042Y-96857208D01*
X74008760Y-96882753D01*
X73806585Y-96948444D01*
X73617179Y-97044951D01*
X73445213Y-97169890D01*
X73294890Y-97320213D01*
X73169951Y-97492179D01*
X73073444Y-97681585D01*
X73007753Y-97883760D01*
X72974500Y-98093713D01*
X13036034Y-98093713D01*
X13036034Y-96131902D01*
X79049500Y-96131902D01*
X79049500Y-96368097D01*
X79086446Y-96601368D01*
X79159433Y-96825996D01*
X79221824Y-96948444D01*
X79266657Y-97036433D01*
X79405483Y-97227510D01*
X79572490Y-97394517D01*
X79763567Y-97533343D01*
X79862991Y-97584002D01*
X79974003Y-97640566D01*
X79974005Y-97640566D01*
X79974008Y-97640568D01*
X80094412Y-97679689D01*
X80198631Y-97713553D01*
X80431903Y-97750500D01*
X80431908Y-97750500D01*
X80668097Y-97750500D01*
X80901368Y-97713553D01*
X81125992Y-97640568D01*
X81336433Y-97533343D01*
X81527510Y-97394517D01*
X81694517Y-97227510D01*
X81833343Y-97036433D01*
X81940568Y-96825992D01*
X82013553Y-96601368D01*
X82050500Y-96368097D01*
X82050500Y-96131902D01*
X82013553Y-95898631D01*
X81940566Y-95674003D01*
X81833342Y-95463566D01*
X81694517Y-95272490D01*
X81527510Y-95105483D01*
X81336433Y-94966657D01*
X81125996Y-94859433D01*
X80901368Y-94786446D01*
X80668097Y-94749500D01*
X80668092Y-94749500D01*
X80431908Y-94749500D01*
X80431903Y-94749500D01*
X80198631Y-94786446D01*
X79974003Y-94859433D01*
X79763566Y-94966657D01*
X79654550Y-95045862D01*
X79572490Y-95105483D01*
X79572488Y-95105485D01*
X79572487Y-95105485D01*
X79405485Y-95272487D01*
X79405485Y-95272488D01*
X79405483Y-95272490D01*
X79345862Y-95354550D01*
X79266657Y-95463566D01*
X79159433Y-95674003D01*
X79086446Y-95898631D01*
X79049500Y-96131902D01*
X13036034Y-96131902D01*
X13036034Y-88702135D01*
X69074500Y-88702135D01*
X69074500Y-90497870D01*
X69074501Y-90497876D01*
X69080908Y-90557483D01*
X69131202Y-90692328D01*
X69131206Y-90692335D01*
X69217452Y-90807544D01*
X69217455Y-90807547D01*
X69332664Y-90893793D01*
X69332671Y-90893797D01*
X69467517Y-90944091D01*
X69467516Y-90944091D01*
X69474444Y-90944835D01*
X69527127Y-90950500D01*
X71322872Y-90950499D01*
X71382483Y-90944091D01*
X71517331Y-90893796D01*
X71632546Y-90807546D01*
X71718796Y-90692331D01*
X71767810Y-90560916D01*
X71809681Y-90504984D01*
X71875145Y-90480566D01*
X71943418Y-90495417D01*
X71971673Y-90516569D01*
X72085213Y-90630109D01*
X72257179Y-90755048D01*
X72257181Y-90755049D01*
X72257184Y-90755051D01*
X72446588Y-90851557D01*
X72648757Y-90917246D01*
X72858713Y-90950500D01*
X72858714Y-90950500D01*
X73071286Y-90950500D01*
X73071287Y-90950500D01*
X73281243Y-90917246D01*
X73483412Y-90851557D01*
X73672816Y-90755051D01*
X73759138Y-90692335D01*
X73844786Y-90630109D01*
X73844788Y-90630106D01*
X73844792Y-90630104D01*
X73995104Y-90479792D01*
X73995106Y-90479788D01*
X73995109Y-90479786D01*
X74120048Y-90307820D01*
X74120047Y-90307820D01*
X74120051Y-90307816D01*
X74216557Y-90118412D01*
X74282246Y-89916243D01*
X74315500Y-89706287D01*
X74315500Y-89493713D01*
X74282246Y-89283757D01*
X74216557Y-89081588D01*
X74120051Y-88892184D01*
X74120049Y-88892181D01*
X74120048Y-88892179D01*
X73995109Y-88720213D01*
X73844786Y-88569890D01*
X73672820Y-88444951D01*
X73483414Y-88348444D01*
X73483413Y-88348443D01*
X73483412Y-88348443D01*
X73281243Y-88282754D01*
X73281241Y-88282753D01*
X73281240Y-88282753D01*
X73119957Y-88257208D01*
X73071287Y-88249500D01*
X72858713Y-88249500D01*
X72810042Y-88257208D01*
X72648760Y-88282753D01*
X72446585Y-88348444D01*
X72257179Y-88444951D01*
X72085215Y-88569889D01*
X71971673Y-88683431D01*
X71910350Y-88716915D01*
X71840658Y-88711931D01*
X71784725Y-88670059D01*
X71767810Y-88639082D01*
X71718797Y-88507671D01*
X71718793Y-88507664D01*
X71632547Y-88392455D01*
X71632544Y-88392452D01*
X71517335Y-88306206D01*
X71517328Y-88306202D01*
X71382482Y-88255908D01*
X71382483Y-88255908D01*
X71322883Y-88249501D01*
X71322881Y-88249500D01*
X71322873Y-88249500D01*
X71322864Y-88249500D01*
X69527129Y-88249500D01*
X69527123Y-88249501D01*
X69467516Y-88255908D01*
X69332671Y-88306202D01*
X69332664Y-88306206D01*
X69217455Y-88392452D01*
X69217452Y-88392455D01*
X69131206Y-88507664D01*
X69131202Y-88507671D01*
X69080908Y-88642517D01*
X69074501Y-88702116D01*
X69074500Y-88702135D01*
X13036034Y-88702135D01*
X13036034Y-85198543D01*
X30999499Y-85198543D01*
X31037947Y-85391829D01*
X31037950Y-85391839D01*
X31113364Y-85573907D01*
X31113371Y-85573920D01*
X31222860Y-85737781D01*
X31222863Y-85737785D01*
X31362214Y-85877136D01*
X31362218Y-85877139D01*
X31526079Y-85986628D01*
X31526092Y-85986635D01*
X31708160Y-86062049D01*
X31708165Y-86062051D01*
X31708169Y-86062051D01*
X31708170Y-86062052D01*
X31901456Y-86100500D01*
X31901459Y-86100500D01*
X32098543Y-86100500D01*
X32228582Y-86074632D01*
X32291835Y-86062051D01*
X32473914Y-85986632D01*
X32637782Y-85877139D01*
X32777139Y-85737782D01*
X32886632Y-85573914D01*
X32962051Y-85391835D01*
X33000500Y-85198543D01*
X58999499Y-85198543D01*
X59037947Y-85391829D01*
X59037950Y-85391839D01*
X59113364Y-85573907D01*
X59113371Y-85573920D01*
X59222860Y-85737781D01*
X59222863Y-85737785D01*
X59362214Y-85877136D01*
X59362218Y-85877139D01*
X59526079Y-85986628D01*
X59526092Y-85986635D01*
X59708160Y-86062049D01*
X59708165Y-86062051D01*
X59708169Y-86062051D01*
X59708170Y-86062052D01*
X59901456Y-86100500D01*
X59901459Y-86100500D01*
X60098543Y-86100500D01*
X60228582Y-86074632D01*
X60291835Y-86062051D01*
X60473914Y-85986632D01*
X60637782Y-85877139D01*
X60777139Y-85737782D01*
X60886632Y-85573914D01*
X60962051Y-85391835D01*
X61000500Y-85198541D01*
X61000500Y-85001459D01*
X61000500Y-85001456D01*
X60962052Y-84808170D01*
X60962051Y-84808169D01*
X60962051Y-84808165D01*
X60915091Y-84694792D01*
X60886635Y-84626092D01*
X60886628Y-84626079D01*
X60777139Y-84462218D01*
X60777136Y-84462214D01*
X60637785Y-84322863D01*
X60637781Y-84322860D01*
X60473920Y-84213371D01*
X60473907Y-84213364D01*
X60291839Y-84137950D01*
X60291829Y-84137947D01*
X60098543Y-84099500D01*
X60098541Y-84099500D01*
X59901459Y-84099500D01*
X59901457Y-84099500D01*
X59708170Y-84137947D01*
X59708160Y-84137950D01*
X59526092Y-84213364D01*
X59526079Y-84213371D01*
X59362218Y-84322860D01*
X59362214Y-84322863D01*
X59222863Y-84462214D01*
X59222860Y-84462218D01*
X59113371Y-84626079D01*
X59113364Y-84626092D01*
X59037950Y-84808160D01*
X59037947Y-84808170D01*
X58999500Y-85001456D01*
X58999500Y-85001459D01*
X58999500Y-85198541D01*
X58999500Y-85198543D01*
X58999499Y-85198543D01*
X33000500Y-85198543D01*
X33000500Y-85198541D01*
X33000500Y-85001459D01*
X33000500Y-85001456D01*
X32962052Y-84808170D01*
X32962051Y-84808169D01*
X32962051Y-84808165D01*
X32915091Y-84694792D01*
X32886635Y-84626092D01*
X32886628Y-84626079D01*
X32777139Y-84462218D01*
X32777136Y-84462214D01*
X32637785Y-84322863D01*
X32637781Y-84322860D01*
X32473920Y-84213371D01*
X32473907Y-84213364D01*
X32291839Y-84137950D01*
X32291829Y-84137947D01*
X32098543Y-84099500D01*
X32098541Y-84099500D01*
X31901459Y-84099500D01*
X31901457Y-84099500D01*
X31708170Y-84137947D01*
X31708160Y-84137950D01*
X31526092Y-84213364D01*
X31526079Y-84213371D01*
X31362218Y-84322860D01*
X31362214Y-84322863D01*
X31222863Y-84462214D01*
X31222860Y-84462218D01*
X31113371Y-84626079D01*
X31113364Y-84626092D01*
X31037950Y-84808160D01*
X31037947Y-84808170D01*
X30999500Y-85001456D01*
X30999500Y-85001459D01*
X30999500Y-85198541D01*
X30999500Y-85198543D01*
X30999499Y-85198543D01*
X13036034Y-85198543D01*
X13036034Y-79886902D01*
X15424500Y-79886902D01*
X15424500Y-80123097D01*
X15461446Y-80356368D01*
X15534433Y-80580996D01*
X15581435Y-80673241D01*
X15641657Y-80791433D01*
X15780483Y-80982510D01*
X15947490Y-81149517D01*
X16138567Y-81288343D01*
X16237991Y-81339002D01*
X16349003Y-81395566D01*
X16349005Y-81395566D01*
X16349008Y-81395568D01*
X16450350Y-81428496D01*
X16573631Y-81468553D01*
X16806903Y-81505500D01*
X16806908Y-81505500D01*
X17043097Y-81505500D01*
X17276368Y-81468553D01*
X17500992Y-81395568D01*
X17711433Y-81288343D01*
X17902510Y-81149517D01*
X18069517Y-80982510D01*
X18208343Y-80791433D01*
X18237402Y-80734402D01*
X28224500Y-80734402D01*
X28224500Y-80970597D01*
X28261446Y-81203868D01*
X28334433Y-81428496D01*
X28441657Y-81638933D01*
X28580483Y-81830010D01*
X28747490Y-81997017D01*
X28938567Y-82135843D01*
X29011262Y-82172883D01*
X29149003Y-82243066D01*
X29149005Y-82243066D01*
X29149008Y-82243068D01*
X29269412Y-82282189D01*
X29373631Y-82316053D01*
X29606903Y-82353000D01*
X29606908Y-82353000D01*
X29843097Y-82353000D01*
X30076368Y-82316053D01*
X30300992Y-82243068D01*
X30511433Y-82135843D01*
X30702510Y-81997017D01*
X30869517Y-81830010D01*
X31008343Y-81638933D01*
X31115568Y-81428492D01*
X31188553Y-81203868D01*
X31197162Y-81149514D01*
X31225500Y-80970597D01*
X31225500Y-80734402D01*
X31201201Y-80580992D01*
X31188553Y-80501132D01*
X31188552Y-80501128D01*
X31188552Y-80501127D01*
X31159633Y-80412124D01*
X31148264Y-80377135D01*
X78149500Y-80377135D01*
X78149500Y-82172870D01*
X78149501Y-82172876D01*
X78155908Y-82232483D01*
X78206202Y-82367328D01*
X78206206Y-82367335D01*
X78292452Y-82482544D01*
X78292455Y-82482547D01*
X78407664Y-82568793D01*
X78407671Y-82568797D01*
X78539082Y-82617810D01*
X78595016Y-82659681D01*
X78619433Y-82725145D01*
X78604582Y-82793418D01*
X78583431Y-82821673D01*
X78469889Y-82935215D01*
X78344951Y-83107179D01*
X78248444Y-83296585D01*
X78182753Y-83498760D01*
X78149500Y-83708713D01*
X78149500Y-83921287D01*
X78182754Y-84131243D01*
X78245015Y-84322863D01*
X78248444Y-84333414D01*
X78344951Y-84522820D01*
X78469890Y-84694786D01*
X78620213Y-84845109D01*
X78792179Y-84970048D01*
X78792181Y-84970049D01*
X78792184Y-84970051D01*
X78981588Y-85066557D01*
X79183757Y-85132246D01*
X79393713Y-85165500D01*
X79393714Y-85165500D01*
X79606286Y-85165500D01*
X79606287Y-85165500D01*
X79816243Y-85132246D01*
X80018412Y-85066557D01*
X80207816Y-84970051D01*
X80229789Y-84954086D01*
X80379786Y-84845109D01*
X80379788Y-84845106D01*
X80379792Y-84845104D01*
X80530104Y-84694792D01*
X80530106Y-84694788D01*
X80530109Y-84694786D01*
X80655048Y-84522820D01*
X80655047Y-84522820D01*
X80655051Y-84522816D01*
X80751557Y-84333412D01*
X80817246Y-84131243D01*
X80850500Y-83921287D01*
X80850500Y-83708713D01*
X80817246Y-83498757D01*
X80751557Y-83296588D01*
X80655051Y-83107184D01*
X80655049Y-83107181D01*
X80655048Y-83107179D01*
X80530109Y-82935213D01*
X80416569Y-82821673D01*
X80383084Y-82760350D01*
X80388068Y-82690658D01*
X80429940Y-82634725D01*
X80460915Y-82617810D01*
X80592331Y-82568796D01*
X80707546Y-82482546D01*
X80793796Y-82367331D01*
X80844091Y-82232483D01*
X80850500Y-82172873D01*
X80850499Y-80377128D01*
X80844091Y-80317517D01*
X80793796Y-80182669D01*
X80793795Y-80182668D01*
X80793793Y-80182664D01*
X80707547Y-80067455D01*
X80707544Y-80067452D01*
X80592335Y-79981206D01*
X80592328Y-79981202D01*
X80457482Y-79930908D01*
X80457483Y-79930908D01*
X80397883Y-79924501D01*
X80397881Y-79924500D01*
X80397873Y-79924500D01*
X80397864Y-79924500D01*
X78602129Y-79924500D01*
X78602123Y-79924501D01*
X78542516Y-79930908D01*
X78407671Y-79981202D01*
X78407664Y-79981206D01*
X78292455Y-80067452D01*
X78292452Y-80067455D01*
X78206206Y-80182664D01*
X78206202Y-80182671D01*
X78155908Y-80317517D01*
X78149501Y-80377116D01*
X78149501Y-80377123D01*
X78149500Y-80377135D01*
X31148264Y-80377135D01*
X31115566Y-80276503D01*
X31037401Y-80123097D01*
X31008343Y-80066067D01*
X30869517Y-79874990D01*
X30702510Y-79707983D01*
X30511433Y-79569157D01*
X30300996Y-79461933D01*
X30076368Y-79388946D01*
X29843097Y-79352000D01*
X29843092Y-79352000D01*
X29606908Y-79352000D01*
X29606903Y-79352000D01*
X29373631Y-79388946D01*
X29149003Y-79461933D01*
X28938566Y-79569157D01*
X28829550Y-79648362D01*
X28747490Y-79707983D01*
X28747488Y-79707985D01*
X28747487Y-79707985D01*
X28580485Y-79874987D01*
X28580485Y-79874988D01*
X28580483Y-79874990D01*
X28520862Y-79957050D01*
X28441657Y-80066066D01*
X28334433Y-80276503D01*
X28261446Y-80501131D01*
X28224500Y-80734402D01*
X18237402Y-80734402D01*
X18315568Y-80580992D01*
X18388553Y-80356368D01*
X18394707Y-80317516D01*
X18425500Y-80123097D01*
X18425500Y-79886902D01*
X18388553Y-79653631D01*
X18326266Y-79461933D01*
X18315568Y-79429008D01*
X18315566Y-79429005D01*
X18315566Y-79429003D01*
X18208342Y-79218566D01*
X18069517Y-79027490D01*
X17902510Y-78860483D01*
X17711433Y-78721657D01*
X17500996Y-78614433D01*
X17276368Y-78541446D01*
X17043097Y-78504500D01*
X17043092Y-78504500D01*
X16806908Y-78504500D01*
X16806903Y-78504500D01*
X16573631Y-78541446D01*
X16349003Y-78614433D01*
X16138566Y-78721657D01*
X16041297Y-78792328D01*
X15947490Y-78860483D01*
X15947488Y-78860485D01*
X15947487Y-78860485D01*
X15780485Y-79027487D01*
X15780485Y-79027488D01*
X15780483Y-79027490D01*
X15720862Y-79109550D01*
X15641657Y-79218566D01*
X15534433Y-79429003D01*
X15461446Y-79653631D01*
X15424500Y-79886902D01*
X13036034Y-79886902D01*
X13036034Y-74124983D01*
X15424500Y-74124983D01*
X15424500Y-75725001D01*
X15424501Y-75725018D01*
X15435000Y-75827796D01*
X15435001Y-75827799D01*
X15448262Y-75867816D01*
X15490186Y-75994334D01*
X15582288Y-76143656D01*
X15706344Y-76267712D01*
X15855666Y-76359814D01*
X16022203Y-76414999D01*
X16124991Y-76425500D01*
X17725008Y-76425499D01*
X17827797Y-76414999D01*
X17994334Y-76359814D01*
X18143656Y-76267712D01*
X18267712Y-76143656D01*
X18359814Y-75994334D01*
X18414999Y-75827797D01*
X18425500Y-75725009D01*
X18425499Y-75053713D01*
X78149500Y-75053713D01*
X78149500Y-75266286D01*
X78182753Y-75476239D01*
X78248444Y-75678414D01*
X78344951Y-75867820D01*
X78469890Y-76039786D01*
X78583430Y-76153326D01*
X78616915Y-76214649D01*
X78611931Y-76284341D01*
X78570059Y-76340274D01*
X78539083Y-76357189D01*
X78407669Y-76406203D01*
X78407664Y-76406206D01*
X78292455Y-76492452D01*
X78292452Y-76492455D01*
X78206206Y-76607664D01*
X78206202Y-76607671D01*
X78155908Y-76742517D01*
X78149501Y-76802116D01*
X78149501Y-76802123D01*
X78149500Y-76802135D01*
X78149500Y-78597870D01*
X78149501Y-78597876D01*
X78155908Y-78657483D01*
X78206202Y-78792328D01*
X78206206Y-78792335D01*
X78292452Y-78907544D01*
X78292455Y-78907547D01*
X78407664Y-78993793D01*
X78407671Y-78993797D01*
X78542517Y-79044091D01*
X78542516Y-79044091D01*
X78549444Y-79044835D01*
X78602127Y-79050500D01*
X80397872Y-79050499D01*
X80457483Y-79044091D01*
X80592331Y-78993796D01*
X80707546Y-78907546D01*
X80793796Y-78792331D01*
X80844091Y-78657483D01*
X80850500Y-78597873D01*
X80850499Y-76802128D01*
X80844091Y-76742517D01*
X80793796Y-76607669D01*
X80793795Y-76607668D01*
X80793793Y-76607664D01*
X80707547Y-76492455D01*
X80707544Y-76492452D01*
X80592335Y-76406206D01*
X80592328Y-76406202D01*
X80460917Y-76357189D01*
X80404983Y-76315318D01*
X80380566Y-76249853D01*
X80395418Y-76181580D01*
X80416563Y-76153332D01*
X80530104Y-76039792D01*
X80563130Y-75994336D01*
X80655048Y-75867820D01*
X80655047Y-75867820D01*
X80655051Y-75867816D01*
X80751557Y-75678412D01*
X80817246Y-75476243D01*
X80850500Y-75266287D01*
X80850500Y-75053713D01*
X80817246Y-74843757D01*
X80751557Y-74641588D01*
X80655051Y-74452184D01*
X80655049Y-74452181D01*
X80655048Y-74452179D01*
X80530109Y-74280213D01*
X80379786Y-74129890D01*
X80207820Y-74004951D01*
X80018414Y-73908444D01*
X80018413Y-73908443D01*
X80018412Y-73908443D01*
X79816243Y-73842754D01*
X79816241Y-73842753D01*
X79816240Y-73842753D01*
X79654957Y-73817208D01*
X79606287Y-73809500D01*
X79393713Y-73809500D01*
X79345042Y-73817208D01*
X79183760Y-73842753D01*
X78981585Y-73908444D01*
X78792179Y-74004951D01*
X78620213Y-74129890D01*
X78469890Y-74280213D01*
X78344951Y-74452179D01*
X78248444Y-74641585D01*
X78182753Y-74843760D01*
X78149500Y-75053713D01*
X18425499Y-75053713D01*
X18425499Y-74843760D01*
X18425499Y-74124998D01*
X18425498Y-74124981D01*
X18414999Y-74022203D01*
X18414998Y-74022200D01*
X18409282Y-74004949D01*
X18359814Y-73855666D01*
X18267712Y-73706344D01*
X18143656Y-73582288D01*
X17994334Y-73490186D01*
X17827797Y-73435001D01*
X17827795Y-73435000D01*
X17725010Y-73424500D01*
X16124998Y-73424500D01*
X16124981Y-73424501D01*
X16022203Y-73435000D01*
X16022200Y-73435001D01*
X15855668Y-73490185D01*
X15855663Y-73490187D01*
X15706342Y-73582289D01*
X15582289Y-73706342D01*
X15490187Y-73855663D01*
X15490186Y-73855666D01*
X15435001Y-74022203D01*
X15435001Y-74022204D01*
X15435000Y-74022204D01*
X15424500Y-74124983D01*
X13036034Y-74124983D01*
X13036034Y-69302135D01*
X69074500Y-69302135D01*
X69074500Y-71097870D01*
X69074501Y-71097876D01*
X69080908Y-71157483D01*
X69131202Y-71292328D01*
X69131206Y-71292335D01*
X69217452Y-71407544D01*
X69217455Y-71407547D01*
X69332664Y-71493793D01*
X69332671Y-71493797D01*
X69467517Y-71544091D01*
X69467516Y-71544091D01*
X69474444Y-71544835D01*
X69527127Y-71550500D01*
X71322872Y-71550499D01*
X71382483Y-71544091D01*
X71517331Y-71493796D01*
X71632546Y-71407546D01*
X71718796Y-71292331D01*
X71767810Y-71160916D01*
X71809681Y-71104984D01*
X71875145Y-71080566D01*
X71943418Y-71095417D01*
X71971673Y-71116569D01*
X72085213Y-71230109D01*
X72257179Y-71355048D01*
X72257181Y-71355049D01*
X72257184Y-71355051D01*
X72446588Y-71451557D01*
X72648757Y-71517246D01*
X72858713Y-71550500D01*
X72858714Y-71550500D01*
X73071286Y-71550500D01*
X73071287Y-71550500D01*
X73281243Y-71517246D01*
X73483412Y-71451557D01*
X73672816Y-71355051D01*
X73759138Y-71292335D01*
X73844786Y-71230109D01*
X73844788Y-71230106D01*
X73844792Y-71230104D01*
X73995104Y-71079792D01*
X73995106Y-71079788D01*
X73995109Y-71079786D01*
X74120048Y-70907820D01*
X74120047Y-70907820D01*
X74120051Y-70907816D01*
X74216557Y-70718412D01*
X74282246Y-70516243D01*
X74315500Y-70306287D01*
X74315500Y-70093713D01*
X74282246Y-69883757D01*
X74216557Y-69681588D01*
X74120051Y-69492184D01*
X74120049Y-69492181D01*
X74120048Y-69492179D01*
X73995109Y-69320213D01*
X73844786Y-69169890D01*
X73672820Y-69044951D01*
X73483414Y-68948444D01*
X73483413Y-68948443D01*
X73483412Y-68948443D01*
X73281243Y-68882754D01*
X73281241Y-68882753D01*
X73281240Y-68882753D01*
X73119957Y-68857208D01*
X73071287Y-68849500D01*
X72858713Y-68849500D01*
X72810042Y-68857208D01*
X72648760Y-68882753D01*
X72446585Y-68948444D01*
X72257179Y-69044951D01*
X72085215Y-69169889D01*
X71971673Y-69283431D01*
X71910350Y-69316915D01*
X71840658Y-69311931D01*
X71784725Y-69270059D01*
X71767810Y-69239082D01*
X71718797Y-69107671D01*
X71718793Y-69107664D01*
X71632547Y-68992455D01*
X71632544Y-68992452D01*
X71517335Y-68906206D01*
X71517328Y-68906202D01*
X71382482Y-68855908D01*
X71382483Y-68855908D01*
X71322883Y-68849501D01*
X71322881Y-68849500D01*
X71322873Y-68849500D01*
X71322864Y-68849500D01*
X69527129Y-68849500D01*
X69527123Y-68849501D01*
X69467516Y-68855908D01*
X69332671Y-68906202D01*
X69332664Y-68906206D01*
X69217455Y-68992452D01*
X69217452Y-68992455D01*
X69131206Y-69107664D01*
X69131202Y-69107671D01*
X69080908Y-69242517D01*
X69074501Y-69302116D01*
X69074500Y-69302135D01*
X13036034Y-69302135D01*
X13036034Y-66398543D01*
X31499499Y-66398543D01*
X31537947Y-66591829D01*
X31537950Y-66591839D01*
X31613364Y-66773907D01*
X31613371Y-66773920D01*
X31722860Y-66937781D01*
X31722863Y-66937785D01*
X31862214Y-67077136D01*
X31862218Y-67077139D01*
X32026079Y-67186628D01*
X32026092Y-67186635D01*
X32208160Y-67262049D01*
X32208165Y-67262051D01*
X32208169Y-67262051D01*
X32208170Y-67262052D01*
X32401456Y-67300500D01*
X32401459Y-67300500D01*
X32598543Y-67300500D01*
X32728582Y-67274632D01*
X32791835Y-67262051D01*
X32973914Y-67186632D01*
X33137782Y-67077139D01*
X33277139Y-66937782D01*
X33386632Y-66773914D01*
X33462051Y-66591835D01*
X33500500Y-66398543D01*
X58999499Y-66398543D01*
X59037947Y-66591829D01*
X59037950Y-66591839D01*
X59113364Y-66773907D01*
X59113371Y-66773920D01*
X59222860Y-66937781D01*
X59222863Y-66937785D01*
X59362214Y-67077136D01*
X59362218Y-67077139D01*
X59526079Y-67186628D01*
X59526092Y-67186635D01*
X59708160Y-67262049D01*
X59708165Y-67262051D01*
X59708169Y-67262051D01*
X59708170Y-67262052D01*
X59901456Y-67300500D01*
X59901459Y-67300500D01*
X60098543Y-67300500D01*
X60228582Y-67274632D01*
X60291835Y-67262051D01*
X60473914Y-67186632D01*
X60637782Y-67077139D01*
X60777139Y-66937782D01*
X60886632Y-66773914D01*
X60962051Y-66591835D01*
X61000500Y-66398541D01*
X61000500Y-66201459D01*
X61000500Y-66201456D01*
X60962052Y-66008170D01*
X60962051Y-66008169D01*
X60962051Y-66008165D01*
X60946286Y-65970104D01*
X60886635Y-65826092D01*
X60886628Y-65826079D01*
X60777139Y-65662218D01*
X60777136Y-65662214D01*
X60637785Y-65522863D01*
X60637781Y-65522860D01*
X60473920Y-65413371D01*
X60473907Y-65413364D01*
X60291839Y-65337950D01*
X60291829Y-65337947D01*
X60098543Y-65299500D01*
X60098541Y-65299500D01*
X59901459Y-65299500D01*
X59901457Y-65299500D01*
X59708170Y-65337947D01*
X59708160Y-65337950D01*
X59526092Y-65413364D01*
X59526079Y-65413371D01*
X59362218Y-65522860D01*
X59362214Y-65522863D01*
X59222863Y-65662214D01*
X59222860Y-65662218D01*
X59113371Y-65826079D01*
X59113364Y-65826092D01*
X59037950Y-66008160D01*
X59037947Y-66008170D01*
X58999500Y-66201456D01*
X58999500Y-66201459D01*
X58999500Y-66398541D01*
X58999500Y-66398543D01*
X58999499Y-66398543D01*
X33500500Y-66398543D01*
X33500500Y-66398541D01*
X33500500Y-66201459D01*
X33500500Y-66201456D01*
X33462052Y-66008170D01*
X33462051Y-66008169D01*
X33462051Y-66008165D01*
X33446286Y-65970104D01*
X33386635Y-65826092D01*
X33386628Y-65826079D01*
X33277139Y-65662218D01*
X33277136Y-65662214D01*
X33137785Y-65522863D01*
X33137781Y-65522860D01*
X32973920Y-65413371D01*
X32973907Y-65413364D01*
X32791839Y-65337950D01*
X32791829Y-65337947D01*
X32598543Y-65299500D01*
X32598541Y-65299500D01*
X32401459Y-65299500D01*
X32401457Y-65299500D01*
X32208170Y-65337947D01*
X32208160Y-65337950D01*
X32026092Y-65413364D01*
X32026079Y-65413371D01*
X31862218Y-65522860D01*
X31862214Y-65522863D01*
X31722863Y-65662214D01*
X31722860Y-65662218D01*
X31613371Y-65826079D01*
X31613364Y-65826092D01*
X31537950Y-66008160D01*
X31537947Y-66008170D01*
X31499500Y-66201456D01*
X31499500Y-66201459D01*
X31499500Y-66398541D01*
X31499500Y-66398543D01*
X31499499Y-66398543D01*
X13036034Y-66398543D01*
X13036034Y-61734402D01*
X28224500Y-61734402D01*
X28224500Y-61970597D01*
X28261446Y-62203868D01*
X28334433Y-62428496D01*
X28441657Y-62638933D01*
X28580483Y-62830010D01*
X28747490Y-62997017D01*
X28938567Y-63135843D01*
X29037991Y-63186502D01*
X29149003Y-63243066D01*
X29149005Y-63243066D01*
X29149008Y-63243068D01*
X29269412Y-63282189D01*
X29373631Y-63316053D01*
X29606903Y-63353000D01*
X29606908Y-63353000D01*
X29843097Y-63353000D01*
X30076368Y-63316053D01*
X30132289Y-63297883D01*
X30300992Y-63243068D01*
X30511433Y-63135843D01*
X30702510Y-62997017D01*
X30869517Y-62830010D01*
X31008343Y-62638933D01*
X31115568Y-62428492D01*
X31188553Y-62203868D01*
X31225500Y-61970597D01*
X31225500Y-61734402D01*
X31191257Y-61518204D01*
X31191257Y-61518203D01*
X31188712Y-61502135D01*
X78149500Y-61502135D01*
X78149500Y-63297870D01*
X78149501Y-63297876D01*
X78155908Y-63357483D01*
X78206202Y-63492328D01*
X78206206Y-63492335D01*
X78292452Y-63607544D01*
X78292455Y-63607547D01*
X78407664Y-63693793D01*
X78407671Y-63693797D01*
X78539082Y-63742810D01*
X78595016Y-63784681D01*
X78619433Y-63850145D01*
X78604582Y-63918418D01*
X78583431Y-63946673D01*
X78469889Y-64060215D01*
X78344951Y-64232179D01*
X78248444Y-64421585D01*
X78182753Y-64623760D01*
X78149500Y-64833713D01*
X78149500Y-65046287D01*
X78182754Y-65256243D01*
X78233808Y-65413371D01*
X78248444Y-65458414D01*
X78344951Y-65647820D01*
X78469890Y-65819786D01*
X78620213Y-65970109D01*
X78792179Y-66095048D01*
X78792181Y-66095049D01*
X78792184Y-66095051D01*
X78981588Y-66191557D01*
X79183757Y-66257246D01*
X79393713Y-66290500D01*
X79393714Y-66290500D01*
X79606286Y-66290500D01*
X79606287Y-66290500D01*
X79816243Y-66257246D01*
X80018412Y-66191557D01*
X80207816Y-66095051D01*
X80229789Y-66079086D01*
X80379786Y-65970109D01*
X80379788Y-65970106D01*
X80379792Y-65970104D01*
X80530104Y-65819792D01*
X80530106Y-65819788D01*
X80530109Y-65819786D01*
X80655048Y-65647820D01*
X80655047Y-65647820D01*
X80655051Y-65647816D01*
X80751557Y-65458412D01*
X80817246Y-65256243D01*
X80850500Y-65046287D01*
X80850500Y-64833713D01*
X80817246Y-64623757D01*
X80751557Y-64421588D01*
X80655051Y-64232184D01*
X80655049Y-64232181D01*
X80655048Y-64232179D01*
X80530109Y-64060213D01*
X80416569Y-63946673D01*
X80383084Y-63885350D01*
X80388068Y-63815658D01*
X80429940Y-63759725D01*
X80460915Y-63742810D01*
X80592331Y-63693796D01*
X80707546Y-63607546D01*
X80793796Y-63492331D01*
X80844091Y-63357483D01*
X80850500Y-63297873D01*
X80850499Y-61502128D01*
X80844091Y-61442517D01*
X80793796Y-61307669D01*
X80793795Y-61307668D01*
X80793793Y-61307664D01*
X80707547Y-61192455D01*
X80707544Y-61192452D01*
X80592335Y-61106206D01*
X80592328Y-61106202D01*
X80457482Y-61055908D01*
X80457483Y-61055908D01*
X80397883Y-61049501D01*
X80397881Y-61049500D01*
X80397873Y-61049500D01*
X80397864Y-61049500D01*
X78602129Y-61049500D01*
X78602123Y-61049501D01*
X78542516Y-61055908D01*
X78407671Y-61106202D01*
X78407664Y-61106206D01*
X78292455Y-61192452D01*
X78292452Y-61192455D01*
X78206206Y-61307664D01*
X78206202Y-61307671D01*
X78155908Y-61442517D01*
X78149607Y-61501131D01*
X78149501Y-61502123D01*
X78149500Y-61502135D01*
X31188712Y-61502135D01*
X31188553Y-61501132D01*
X31188553Y-61501131D01*
X31146675Y-61372246D01*
X31115568Y-61276508D01*
X31115566Y-61276505D01*
X31115566Y-61276503D01*
X31018045Y-61085109D01*
X31008343Y-61066067D01*
X30869517Y-60874990D01*
X30702510Y-60707983D01*
X30511433Y-60569157D01*
X30474817Y-60550500D01*
X30300996Y-60461933D01*
X30076368Y-60388946D01*
X29843097Y-60352000D01*
X29843092Y-60352000D01*
X29606908Y-60352000D01*
X29606903Y-60352000D01*
X29373631Y-60388946D01*
X29149003Y-60461933D01*
X28938566Y-60569157D01*
X28829550Y-60648362D01*
X28747490Y-60707983D01*
X28747488Y-60707985D01*
X28747487Y-60707985D01*
X28580485Y-60874987D01*
X28580485Y-60874988D01*
X28580483Y-60874990D01*
X28537039Y-60934786D01*
X28441657Y-61066066D01*
X28334433Y-61276503D01*
X28261446Y-61501131D01*
X28224500Y-61734402D01*
X13036034Y-61734402D01*
X13036034Y-47248713D01*
X15109500Y-47248713D01*
X15109500Y-47461286D01*
X15142753Y-47671239D01*
X15208444Y-47873414D01*
X15304951Y-48062820D01*
X15429890Y-48234786D01*
X15580213Y-48385109D01*
X15752182Y-48510050D01*
X15760946Y-48514516D01*
X15811742Y-48562491D01*
X15828536Y-48630312D01*
X15805998Y-48696447D01*
X15760946Y-48735484D01*
X15752182Y-48739949D01*
X15580213Y-48864890D01*
X15429890Y-49015213D01*
X15304951Y-49187179D01*
X15208444Y-49376585D01*
X15142753Y-49578760D01*
X15109500Y-49788713D01*
X15109500Y-50001286D01*
X15141955Y-50206202D01*
X15142754Y-50211243D01*
X15206575Y-50407664D01*
X15208444Y-50413414D01*
X15304951Y-50602820D01*
X15429890Y-50774786D01*
X15580213Y-50925109D01*
X15752182Y-51050050D01*
X15760946Y-51054516D01*
X15811742Y-51102491D01*
X15828536Y-51170312D01*
X15805998Y-51236447D01*
X15760946Y-51275484D01*
X15752182Y-51279949D01*
X15580213Y-51404890D01*
X15429890Y-51555213D01*
X15304951Y-51727179D01*
X15208444Y-51916585D01*
X15142753Y-52118760D01*
X15109500Y-52328713D01*
X15109500Y-52541286D01*
X15140896Y-52739516D01*
X15142754Y-52751243D01*
X15176568Y-52855312D01*
X15208444Y-52953414D01*
X15304951Y-53142820D01*
X15429890Y-53314786D01*
X15580213Y-53465109D01*
X15752182Y-53590050D01*
X15760946Y-53594516D01*
X15811742Y-53642491D01*
X15828536Y-53710312D01*
X15805998Y-53776447D01*
X15760946Y-53815484D01*
X15752182Y-53819949D01*
X15580213Y-53944890D01*
X15429890Y-54095213D01*
X15304951Y-54267179D01*
X15208444Y-54456585D01*
X15142753Y-54658760D01*
X15109500Y-54868713D01*
X15109500Y-55081286D01*
X15140956Y-55279896D01*
X15142754Y-55291243D01*
X15187908Y-55430213D01*
X15208444Y-55493414D01*
X15304951Y-55682820D01*
X15429890Y-55854786D01*
X15580213Y-56005109D01*
X15752182Y-56130050D01*
X15760946Y-56134516D01*
X15811742Y-56182491D01*
X15828536Y-56250312D01*
X15805998Y-56316447D01*
X15760946Y-56355484D01*
X15752182Y-56359949D01*
X15580213Y-56484890D01*
X15429890Y-56635213D01*
X15304951Y-56807179D01*
X15208444Y-56996585D01*
X15142753Y-57198760D01*
X15109500Y-57408713D01*
X15109500Y-57621286D01*
X15140896Y-57819516D01*
X15142754Y-57831243D01*
X15182034Y-57952135D01*
X15208444Y-58033414D01*
X15304951Y-58222820D01*
X15429890Y-58394786D01*
X15580213Y-58545109D01*
X15752182Y-58670050D01*
X15760946Y-58674516D01*
X15811742Y-58722491D01*
X15828536Y-58790312D01*
X15805998Y-58856447D01*
X15760946Y-58895484D01*
X15752182Y-58899949D01*
X15580213Y-59024890D01*
X15429890Y-59175213D01*
X15304951Y-59347179D01*
X15208444Y-59536585D01*
X15142753Y-59738760D01*
X15115977Y-59907816D01*
X15109500Y-59948713D01*
X15109500Y-60161287D01*
X15142754Y-60371243D01*
X15207060Y-60569157D01*
X15208444Y-60573414D01*
X15304951Y-60762820D01*
X15429890Y-60934786D01*
X15580213Y-61085109D01*
X15752179Y-61210048D01*
X15752181Y-61210049D01*
X15752184Y-61210051D01*
X15941588Y-61306557D01*
X16143757Y-61372246D01*
X16353713Y-61405500D01*
X16353714Y-61405500D01*
X16566286Y-61405500D01*
X16566287Y-61405500D01*
X16776243Y-61372246D01*
X16978412Y-61306557D01*
X17167816Y-61210051D01*
X17192039Y-61192452D01*
X17339786Y-61085109D01*
X17339788Y-61085106D01*
X17339792Y-61085104D01*
X17490104Y-60934792D01*
X17490106Y-60934788D01*
X17490109Y-60934786D01*
X17615048Y-60762820D01*
X17615047Y-60762820D01*
X17615051Y-60762816D01*
X17711557Y-60573412D01*
X17777246Y-60371243D01*
X17810500Y-60161287D01*
X17810500Y-59948713D01*
X17777246Y-59738757D01*
X17711557Y-59536588D01*
X17615051Y-59347184D01*
X17615049Y-59347181D01*
X17615048Y-59347179D01*
X17490109Y-59175213D01*
X17339786Y-59024890D01*
X17167820Y-58899951D01*
X17167115Y-58899591D01*
X17159054Y-58895485D01*
X17108259Y-58847512D01*
X17091463Y-58779692D01*
X17113999Y-58713556D01*
X17159054Y-58674515D01*
X17167816Y-58670051D01*
X17189789Y-58654086D01*
X17339786Y-58545109D01*
X17339788Y-58545106D01*
X17339792Y-58545104D01*
X17490104Y-58394792D01*
X17490106Y-58394788D01*
X17490109Y-58394786D01*
X17615048Y-58222820D01*
X17615047Y-58222820D01*
X17615051Y-58222816D01*
X17711557Y-58033412D01*
X17777246Y-57831243D01*
X17810500Y-57621287D01*
X17810500Y-57408713D01*
X17777246Y-57198757D01*
X17711557Y-56996588D01*
X17615051Y-56807184D01*
X17615049Y-56807181D01*
X17615048Y-56807179D01*
X17490109Y-56635213D01*
X17339786Y-56484890D01*
X17167820Y-56359951D01*
X17167115Y-56359591D01*
X17159054Y-56355485D01*
X17155343Y-56351980D01*
X17150419Y-56350641D01*
X17130202Y-56328236D01*
X17108259Y-56307512D01*
X17107031Y-56302557D01*
X17103612Y-56298767D01*
X17098716Y-56268982D01*
X17091463Y-56239692D01*
X17093109Y-56234861D01*
X17092281Y-56229822D01*
X17103576Y-56203713D01*
X78149500Y-56203713D01*
X78149500Y-56416287D01*
X78182754Y-56626243D01*
X78228257Y-56766287D01*
X78248444Y-56828414D01*
X78344951Y-57017820D01*
X78469890Y-57189786D01*
X78583430Y-57303326D01*
X78616915Y-57364649D01*
X78611931Y-57434341D01*
X78570059Y-57490274D01*
X78539083Y-57507189D01*
X78407669Y-57556203D01*
X78407664Y-57556206D01*
X78292455Y-57642452D01*
X78292452Y-57642455D01*
X78206206Y-57757664D01*
X78206202Y-57757671D01*
X78155908Y-57892517D01*
X78149896Y-57948443D01*
X78149501Y-57952123D01*
X78149500Y-57952135D01*
X78149500Y-59747870D01*
X78149501Y-59747876D01*
X78155908Y-59807483D01*
X78206202Y-59942328D01*
X78206206Y-59942335D01*
X78292452Y-60057544D01*
X78292455Y-60057547D01*
X78407664Y-60143793D01*
X78407671Y-60143797D01*
X78542517Y-60194091D01*
X78542516Y-60194091D01*
X78549444Y-60194835D01*
X78602127Y-60200500D01*
X80397872Y-60200499D01*
X80457483Y-60194091D01*
X80592331Y-60143796D01*
X80707546Y-60057546D01*
X80793796Y-59942331D01*
X80844091Y-59807483D01*
X80850500Y-59747873D01*
X80850499Y-57952128D01*
X80844091Y-57892517D01*
X80831424Y-57858556D01*
X80793797Y-57757671D01*
X80793793Y-57757664D01*
X80707547Y-57642455D01*
X80707544Y-57642452D01*
X80592335Y-57556206D01*
X80592328Y-57556202D01*
X80460917Y-57507189D01*
X80404983Y-57465318D01*
X80380566Y-57399853D01*
X80395418Y-57331580D01*
X80416563Y-57303332D01*
X80530104Y-57189792D01*
X80655051Y-57017816D01*
X80751557Y-56828412D01*
X80817246Y-56626243D01*
X80850500Y-56416287D01*
X80850500Y-56203713D01*
X80817246Y-55993757D01*
X80751557Y-55791588D01*
X80655051Y-55602184D01*
X80655049Y-55602181D01*
X80655048Y-55602179D01*
X80530109Y-55430213D01*
X80379786Y-55279890D01*
X80207820Y-55154951D01*
X80018414Y-55058444D01*
X80018413Y-55058443D01*
X80018412Y-55058443D01*
X79816243Y-54992754D01*
X79816241Y-54992753D01*
X79816240Y-54992753D01*
X79654957Y-54967208D01*
X79606287Y-54959500D01*
X79393713Y-54959500D01*
X79345042Y-54967208D01*
X79183760Y-54992753D01*
X78981585Y-55058444D01*
X78792179Y-55154951D01*
X78620213Y-55279890D01*
X78469890Y-55430213D01*
X78344951Y-55602179D01*
X78248444Y-55791585D01*
X78182753Y-55993760D01*
X78180956Y-56005109D01*
X78149500Y-56203713D01*
X17103576Y-56203713D01*
X17104265Y-56202120D01*
X17113999Y-56173556D01*
X17118546Y-56169110D01*
X17120024Y-56165696D01*
X17131055Y-56156882D01*
X17146228Y-56142052D01*
X17152412Y-56137899D01*
X17167816Y-56130051D01*
X17213076Y-56097168D01*
X17339786Y-56005109D01*
X17339788Y-56005106D01*
X17339792Y-56005104D01*
X17490104Y-55854792D01*
X17490106Y-55854788D01*
X17490109Y-55854786D01*
X17615048Y-55682820D01*
X17615047Y-55682820D01*
X17615051Y-55682816D01*
X17711557Y-55493412D01*
X17777246Y-55291243D01*
X17810500Y-55081287D01*
X17810500Y-54868713D01*
X17777246Y-54658757D01*
X17711557Y-54456588D01*
X17615051Y-54267184D01*
X17615049Y-54267181D01*
X17615048Y-54267179D01*
X17490109Y-54095213D01*
X17339786Y-53944890D01*
X17167820Y-53819951D01*
X17167115Y-53819591D01*
X17159054Y-53815485D01*
X17108259Y-53767512D01*
X17091463Y-53699692D01*
X17113999Y-53633556D01*
X17159054Y-53594515D01*
X17167816Y-53590051D01*
X17189789Y-53574086D01*
X17339786Y-53465109D01*
X17339788Y-53465106D01*
X17339792Y-53465104D01*
X17490104Y-53314792D01*
X17490106Y-53314788D01*
X17490109Y-53314786D01*
X17615048Y-53142820D01*
X17615047Y-53142820D01*
X17615051Y-53142816D01*
X17711557Y-52953412D01*
X17777246Y-52751243D01*
X17810500Y-52541287D01*
X17810500Y-52328713D01*
X17777246Y-52118757D01*
X17711557Y-51916588D01*
X17615051Y-51727184D01*
X17615049Y-51727181D01*
X17615048Y-51727179D01*
X17490109Y-51555213D01*
X17339786Y-51404890D01*
X17167820Y-51279951D01*
X17167115Y-51279591D01*
X17159054Y-51275485D01*
X17108259Y-51227512D01*
X17091463Y-51159692D01*
X17113999Y-51093556D01*
X17159054Y-51054515D01*
X17167816Y-51050051D01*
X17262052Y-50981585D01*
X17339786Y-50925109D01*
X17339788Y-50925106D01*
X17339792Y-50925104D01*
X17490104Y-50774792D01*
X17490106Y-50774788D01*
X17490109Y-50774786D01*
X17602411Y-50620213D01*
X17615051Y-50602816D01*
X17615398Y-50602135D01*
X69074500Y-50602135D01*
X69074500Y-52397870D01*
X69074501Y-52397876D01*
X69080908Y-52457483D01*
X69131202Y-52592328D01*
X69131206Y-52592335D01*
X69217452Y-52707544D01*
X69217455Y-52707547D01*
X69332664Y-52793793D01*
X69332671Y-52793797D01*
X69467517Y-52844091D01*
X69467516Y-52844091D01*
X69473107Y-52844692D01*
X69527127Y-52850500D01*
X71322872Y-52850499D01*
X71382483Y-52844091D01*
X71517331Y-52793796D01*
X71632546Y-52707546D01*
X71718796Y-52592331D01*
X71767810Y-52460916D01*
X71809681Y-52404984D01*
X71875145Y-52380566D01*
X71943418Y-52395417D01*
X71971673Y-52416569D01*
X72085213Y-52530109D01*
X72257179Y-52655048D01*
X72257181Y-52655049D01*
X72257184Y-52655051D01*
X72446588Y-52751557D01*
X72648757Y-52817246D01*
X72858713Y-52850500D01*
X72858714Y-52850500D01*
X73071286Y-52850500D01*
X73071287Y-52850500D01*
X73281243Y-52817246D01*
X73483412Y-52751557D01*
X73672816Y-52655051D01*
X73759138Y-52592335D01*
X73844786Y-52530109D01*
X73844788Y-52530106D01*
X73844792Y-52530104D01*
X73995104Y-52379792D01*
X73995106Y-52379788D01*
X73995109Y-52379786D01*
X74120048Y-52207820D01*
X74120047Y-52207820D01*
X74120051Y-52207816D01*
X74216557Y-52018412D01*
X74282246Y-51816243D01*
X74315500Y-51606287D01*
X74315500Y-51393713D01*
X74282246Y-51183757D01*
X74216557Y-50981588D01*
X74120051Y-50792184D01*
X74120049Y-50792181D01*
X74120048Y-50792179D01*
X73995109Y-50620213D01*
X73844786Y-50469890D01*
X73672820Y-50344951D01*
X73483414Y-50248444D01*
X73483413Y-50248443D01*
X73483412Y-50248443D01*
X73281243Y-50182754D01*
X73281241Y-50182753D01*
X73281240Y-50182753D01*
X73119957Y-50157208D01*
X73071287Y-50149500D01*
X72858713Y-50149500D01*
X72810042Y-50157208D01*
X72648760Y-50182753D01*
X72446585Y-50248444D01*
X72257179Y-50344951D01*
X72085215Y-50469889D01*
X71971673Y-50583431D01*
X71910350Y-50616915D01*
X71840658Y-50611931D01*
X71784725Y-50570059D01*
X71767810Y-50539082D01*
X71718797Y-50407671D01*
X71718793Y-50407664D01*
X71632547Y-50292455D01*
X71632544Y-50292452D01*
X71517335Y-50206206D01*
X71517328Y-50206202D01*
X71382482Y-50155908D01*
X71382483Y-50155908D01*
X71322883Y-50149501D01*
X71322881Y-50149500D01*
X71322873Y-50149500D01*
X71322864Y-50149500D01*
X69527129Y-50149500D01*
X69527123Y-50149501D01*
X69467516Y-50155908D01*
X69332671Y-50206202D01*
X69332664Y-50206206D01*
X69217455Y-50292452D01*
X69217452Y-50292455D01*
X69131206Y-50407664D01*
X69131202Y-50407671D01*
X69080908Y-50542517D01*
X69074501Y-50602116D01*
X69074500Y-50602135D01*
X17615398Y-50602135D01*
X17711557Y-50413412D01*
X17777246Y-50211243D01*
X17810500Y-50001287D01*
X17810500Y-49788713D01*
X17777246Y-49578757D01*
X17711557Y-49376588D01*
X17615051Y-49187184D01*
X17615049Y-49187181D01*
X17615048Y-49187179D01*
X17490109Y-49015213D01*
X17408609Y-48933713D01*
X93249500Y-48933713D01*
X93249500Y-49146287D01*
X93259534Y-49209644D01*
X93282753Y-49356239D01*
X93348444Y-49558414D01*
X93444951Y-49747820D01*
X93569890Y-49919786D01*
X93720213Y-50070109D01*
X93892182Y-50195050D01*
X93900946Y-50199516D01*
X93951742Y-50247491D01*
X93968536Y-50315312D01*
X93945998Y-50381447D01*
X93900946Y-50420484D01*
X93892182Y-50424949D01*
X93720213Y-50549890D01*
X93569890Y-50700213D01*
X93444951Y-50872179D01*
X93348444Y-51061585D01*
X93282753Y-51263760D01*
X93249500Y-51473713D01*
X93249500Y-51686287D01*
X93259534Y-51749644D01*
X93270082Y-51816239D01*
X93282754Y-51896243D01*
X93322449Y-52018412D01*
X93348444Y-52098414D01*
X93444951Y-52287820D01*
X93569890Y-52459786D01*
X93720213Y-52610109D01*
X93892182Y-52735050D01*
X93900946Y-52739516D01*
X93951742Y-52787491D01*
X93968536Y-52855312D01*
X93945998Y-52921447D01*
X93900946Y-52960484D01*
X93892182Y-52964949D01*
X93720213Y-53089890D01*
X93569890Y-53240213D01*
X93444951Y-53412179D01*
X93348444Y-53601585D01*
X93282753Y-53803760D01*
X93249500Y-54013713D01*
X93249500Y-54226287D01*
X93259534Y-54289644D01*
X93282753Y-54436239D01*
X93348444Y-54638414D01*
X93444951Y-54827820D01*
X93569890Y-54999786D01*
X93720213Y-55150109D01*
X93892182Y-55275050D01*
X93900946Y-55279516D01*
X93951742Y-55327491D01*
X93968536Y-55395312D01*
X93945998Y-55461447D01*
X93900946Y-55500484D01*
X93892182Y-55504949D01*
X93720213Y-55629890D01*
X93569890Y-55780213D01*
X93444951Y-55952179D01*
X93348444Y-56141585D01*
X93282753Y-56343760D01*
X93249500Y-56553713D01*
X93249500Y-56766287D01*
X93282754Y-56976243D01*
X93296263Y-57017820D01*
X93348444Y-57178414D01*
X93444951Y-57367820D01*
X93569890Y-57539786D01*
X93720213Y-57690109D01*
X93892182Y-57815050D01*
X93900946Y-57819516D01*
X93951742Y-57867491D01*
X93968536Y-57935312D01*
X93945998Y-58001447D01*
X93900946Y-58040484D01*
X93892182Y-58044949D01*
X93720213Y-58169890D01*
X93569890Y-58320213D01*
X93444951Y-58492179D01*
X93348444Y-58681585D01*
X93282753Y-58883760D01*
X93249500Y-59093713D01*
X93249500Y-59306287D01*
X93259534Y-59369644D01*
X93282753Y-59516239D01*
X93348444Y-59718414D01*
X93444951Y-59907820D01*
X93569890Y-60079786D01*
X93720213Y-60230109D01*
X93892179Y-60355048D01*
X93892181Y-60355049D01*
X93892184Y-60355051D01*
X94081588Y-60451557D01*
X94283757Y-60517246D01*
X94493713Y-60550500D01*
X94493714Y-60550500D01*
X94706286Y-60550500D01*
X94706287Y-60550500D01*
X94916243Y-60517246D01*
X95118412Y-60451557D01*
X95307816Y-60355051D01*
X95329789Y-60339086D01*
X95479786Y-60230109D01*
X95479788Y-60230106D01*
X95479792Y-60230104D01*
X95630104Y-60079792D01*
X95630106Y-60079788D01*
X95630109Y-60079786D01*
X95755048Y-59907820D01*
X95755047Y-59907820D01*
X95755051Y-59907816D01*
X95851557Y-59718412D01*
X95917246Y-59516243D01*
X95950500Y-59306287D01*
X95950500Y-59093713D01*
X95917246Y-58883757D01*
X95851557Y-58681588D01*
X95755051Y-58492184D01*
X95755049Y-58492181D01*
X95755048Y-58492179D01*
X95630109Y-58320213D01*
X95479786Y-58169890D01*
X95307820Y-58044951D01*
X95307115Y-58044591D01*
X95299054Y-58040485D01*
X95248259Y-57992512D01*
X95231463Y-57924692D01*
X95253999Y-57858556D01*
X95299054Y-57819515D01*
X95307816Y-57815051D01*
X95329789Y-57799086D01*
X95479786Y-57690109D01*
X95479788Y-57690106D01*
X95479792Y-57690104D01*
X95630104Y-57539792D01*
X95630106Y-57539788D01*
X95630109Y-57539786D01*
X95755048Y-57367820D01*
X95755047Y-57367820D01*
X95755051Y-57367816D01*
X95851557Y-57178412D01*
X95917246Y-56976243D01*
X95950500Y-56766287D01*
X95950500Y-56553713D01*
X95917246Y-56343757D01*
X95851557Y-56141588D01*
X95755051Y-55952184D01*
X95755049Y-55952181D01*
X95755048Y-55952179D01*
X95630109Y-55780213D01*
X95479786Y-55629890D01*
X95307820Y-55504951D01*
X95307115Y-55504591D01*
X95299054Y-55500485D01*
X95248259Y-55452512D01*
X95231463Y-55384692D01*
X95253999Y-55318556D01*
X95299054Y-55279515D01*
X95307816Y-55275051D01*
X95473121Y-55154951D01*
X95479786Y-55150109D01*
X95479788Y-55150106D01*
X95479792Y-55150104D01*
X95630104Y-54999792D01*
X95630106Y-54999788D01*
X95630109Y-54999786D01*
X95755048Y-54827820D01*
X95755047Y-54827820D01*
X95755051Y-54827816D01*
X95851557Y-54638412D01*
X95917246Y-54436243D01*
X95950500Y-54226287D01*
X95950500Y-54013713D01*
X95917246Y-53803757D01*
X95851557Y-53601588D01*
X95755051Y-53412184D01*
X95755049Y-53412181D01*
X95755048Y-53412179D01*
X95630109Y-53240213D01*
X95479786Y-53089890D01*
X95307820Y-52964951D01*
X95307115Y-52964591D01*
X95299054Y-52960485D01*
X95248259Y-52912512D01*
X95231463Y-52844692D01*
X95253999Y-52778556D01*
X95299054Y-52739515D01*
X95307816Y-52735051D01*
X95345676Y-52707544D01*
X95479786Y-52610109D01*
X95479788Y-52610106D01*
X95479792Y-52610104D01*
X95630104Y-52459792D01*
X95630106Y-52459788D01*
X95630109Y-52459786D01*
X95755048Y-52287820D01*
X95755047Y-52287820D01*
X95755051Y-52287816D01*
X95851557Y-52098412D01*
X95917246Y-51896243D01*
X95950500Y-51686287D01*
X95950500Y-51473713D01*
X95917246Y-51263757D01*
X95851557Y-51061588D01*
X95755051Y-50872184D01*
X95755049Y-50872181D01*
X95755048Y-50872179D01*
X95630109Y-50700213D01*
X95479786Y-50549890D01*
X95307820Y-50424951D01*
X95307115Y-50424591D01*
X95299054Y-50420485D01*
X95248259Y-50372512D01*
X95231463Y-50304692D01*
X95253999Y-50238556D01*
X95299054Y-50199515D01*
X95307816Y-50195051D01*
X95370512Y-50149500D01*
X95479786Y-50070109D01*
X95479788Y-50070106D01*
X95479792Y-50070104D01*
X95630104Y-49919792D01*
X95630106Y-49919788D01*
X95630109Y-49919786D01*
X95755048Y-49747820D01*
X95755047Y-49747820D01*
X95755051Y-49747816D01*
X95851557Y-49558412D01*
X95917246Y-49356243D01*
X95950500Y-49146287D01*
X95950500Y-48933713D01*
X95917246Y-48723757D01*
X95851557Y-48521588D01*
X95755051Y-48332184D01*
X95755049Y-48332181D01*
X95755048Y-48332179D01*
X95630109Y-48160213D01*
X95479786Y-48009890D01*
X95307820Y-47884951D01*
X95118414Y-47788444D01*
X95118413Y-47788443D01*
X95118412Y-47788443D01*
X94916243Y-47722754D01*
X94916241Y-47722753D01*
X94916240Y-47722753D01*
X94754957Y-47697208D01*
X94706287Y-47689500D01*
X94493713Y-47689500D01*
X94445042Y-47697208D01*
X94283760Y-47722753D01*
X94081585Y-47788444D01*
X93892179Y-47884951D01*
X93720213Y-48009890D01*
X93569890Y-48160213D01*
X93444951Y-48332179D01*
X93348444Y-48521585D01*
X93282753Y-48723760D01*
X93249500Y-48933713D01*
X17408609Y-48933713D01*
X17339786Y-48864890D01*
X17167820Y-48739951D01*
X17167115Y-48739591D01*
X17159054Y-48735485D01*
X17108259Y-48687512D01*
X17091463Y-48619692D01*
X17113999Y-48553556D01*
X17159054Y-48514515D01*
X17167816Y-48510051D01*
X17189789Y-48494086D01*
X17339786Y-48385109D01*
X17339788Y-48385106D01*
X17339792Y-48385104D01*
X17490104Y-48234792D01*
X17490106Y-48234788D01*
X17490109Y-48234786D01*
X17615048Y-48062820D01*
X17615047Y-48062820D01*
X17615051Y-48062816D01*
X17711557Y-47873412D01*
X17777246Y-47671243D01*
X17810500Y-47461287D01*
X17810500Y-47248713D01*
X17806513Y-47223543D01*
X31499499Y-47223543D01*
X31537947Y-47416829D01*
X31537950Y-47416839D01*
X31613364Y-47598907D01*
X31613371Y-47598920D01*
X31722860Y-47762781D01*
X31722863Y-47762785D01*
X31862214Y-47902136D01*
X31862218Y-47902139D01*
X32026079Y-48011628D01*
X32026092Y-48011635D01*
X32208160Y-48087049D01*
X32208165Y-48087051D01*
X32208169Y-48087051D01*
X32208170Y-48087052D01*
X32401456Y-48125500D01*
X32401459Y-48125500D01*
X32598543Y-48125500D01*
X32728582Y-48099632D01*
X32791835Y-48087051D01*
X32973914Y-48011632D01*
X33137782Y-47902139D01*
X33277139Y-47762782D01*
X33386632Y-47598914D01*
X33462051Y-47416835D01*
X33500500Y-47223543D01*
X58999499Y-47223543D01*
X59037947Y-47416829D01*
X59037950Y-47416839D01*
X59113364Y-47598907D01*
X59113371Y-47598920D01*
X59222860Y-47762781D01*
X59222863Y-47762785D01*
X59362214Y-47902136D01*
X59362218Y-47902139D01*
X59526079Y-48011628D01*
X59526092Y-48011635D01*
X59708160Y-48087049D01*
X59708165Y-48087051D01*
X59708169Y-48087051D01*
X59708170Y-48087052D01*
X59901456Y-48125500D01*
X59901459Y-48125500D01*
X60098543Y-48125500D01*
X60228582Y-48099632D01*
X60291835Y-48087051D01*
X60473914Y-48011632D01*
X60637782Y-47902139D01*
X60777139Y-47762782D01*
X60886632Y-47598914D01*
X60962051Y-47416835D01*
X61000500Y-47223541D01*
X61000500Y-47026459D01*
X61000500Y-47026456D01*
X60962052Y-46833170D01*
X60962051Y-46833169D01*
X60962051Y-46833165D01*
X60962049Y-46833160D01*
X60886635Y-46651092D01*
X60886628Y-46651079D01*
X60777139Y-46487218D01*
X60777136Y-46487214D01*
X60637785Y-46347863D01*
X60637781Y-46347860D01*
X60473920Y-46238371D01*
X60473907Y-46238364D01*
X60291839Y-46162950D01*
X60291829Y-46162947D01*
X60098543Y-46124500D01*
X60098541Y-46124500D01*
X59901459Y-46124500D01*
X59901457Y-46124500D01*
X59708170Y-46162947D01*
X59708160Y-46162950D01*
X59526092Y-46238364D01*
X59526079Y-46238371D01*
X59362218Y-46347860D01*
X59362214Y-46347863D01*
X59222863Y-46487214D01*
X59222860Y-46487218D01*
X59113371Y-46651079D01*
X59113364Y-46651092D01*
X59037950Y-46833160D01*
X59037947Y-46833170D01*
X58999500Y-47026456D01*
X58999500Y-47026459D01*
X58999500Y-47223541D01*
X58999500Y-47223543D01*
X58999499Y-47223543D01*
X33500500Y-47223543D01*
X33500500Y-47223541D01*
X33500500Y-47026459D01*
X33500500Y-47026456D01*
X33462052Y-46833170D01*
X33462051Y-46833169D01*
X33462051Y-46833165D01*
X33462049Y-46833160D01*
X33386635Y-46651092D01*
X33386628Y-46651079D01*
X33277139Y-46487218D01*
X33277136Y-46487214D01*
X33137785Y-46347863D01*
X33137781Y-46347860D01*
X32973920Y-46238371D01*
X32973907Y-46238364D01*
X32791839Y-46162950D01*
X32791829Y-46162947D01*
X32598543Y-46124500D01*
X32598541Y-46124500D01*
X32401459Y-46124500D01*
X32401457Y-46124500D01*
X32208170Y-46162947D01*
X32208160Y-46162950D01*
X32026092Y-46238364D01*
X32026079Y-46238371D01*
X31862218Y-46347860D01*
X31862214Y-46347863D01*
X31722863Y-46487214D01*
X31722860Y-46487218D01*
X31613371Y-46651079D01*
X31613364Y-46651092D01*
X31537950Y-46833160D01*
X31537947Y-46833170D01*
X31499500Y-47026456D01*
X31499500Y-47026459D01*
X31499500Y-47223541D01*
X31499500Y-47223543D01*
X31499499Y-47223543D01*
X17806513Y-47223543D01*
X17777246Y-47038757D01*
X17711557Y-46836588D01*
X17615051Y-46647184D01*
X17615049Y-46647181D01*
X17615048Y-46647179D01*
X17490109Y-46475213D01*
X17339786Y-46324890D01*
X17167820Y-46199951D01*
X16978414Y-46103444D01*
X16978413Y-46103443D01*
X16978412Y-46103443D01*
X16776243Y-46037754D01*
X16776241Y-46037753D01*
X16776240Y-46037753D01*
X16614957Y-46012208D01*
X16566287Y-46004500D01*
X16353713Y-46004500D01*
X16305042Y-46012208D01*
X16143760Y-46037753D01*
X15941585Y-46103444D01*
X15752179Y-46199951D01*
X15580213Y-46324890D01*
X15429890Y-46475213D01*
X15304951Y-46647179D01*
X15208444Y-46836585D01*
X15142753Y-47038760D01*
X15109500Y-47248713D01*
X13036034Y-47248713D01*
X13036034Y-42709402D01*
X28224500Y-42709402D01*
X28224500Y-42945597D01*
X28261446Y-43178868D01*
X28334433Y-43403496D01*
X28441657Y-43613933D01*
X28580483Y-43805010D01*
X28747490Y-43972017D01*
X28938567Y-44110843D01*
X29037991Y-44161502D01*
X29149003Y-44218066D01*
X29149005Y-44218066D01*
X29149008Y-44218068D01*
X29269412Y-44257189D01*
X29373631Y-44291053D01*
X29606903Y-44328000D01*
X29606908Y-44328000D01*
X29843097Y-44328000D01*
X30076368Y-44291053D01*
X30300992Y-44218068D01*
X30511433Y-44110843D01*
X30702510Y-43972017D01*
X30869517Y-43805010D01*
X31008343Y-43613933D01*
X31115568Y-43403492D01*
X31188553Y-43178868D01*
X31225500Y-42945597D01*
X31225500Y-42709402D01*
X31215015Y-42643204D01*
X31212470Y-42627135D01*
X78149500Y-42627135D01*
X78149500Y-44422870D01*
X78149501Y-44422876D01*
X78155908Y-44482483D01*
X78206202Y-44617328D01*
X78206206Y-44617335D01*
X78292452Y-44732544D01*
X78292455Y-44732547D01*
X78407664Y-44818793D01*
X78407671Y-44818797D01*
X78539082Y-44867810D01*
X78595016Y-44909681D01*
X78619433Y-44975145D01*
X78604582Y-45043418D01*
X78583431Y-45071673D01*
X78469889Y-45185215D01*
X78344951Y-45357179D01*
X78248444Y-45546585D01*
X78182753Y-45748760D01*
X78149500Y-45958713D01*
X78149500Y-46171286D01*
X78177466Y-46347861D01*
X78182754Y-46381243D01*
X78217186Y-46487214D01*
X78248444Y-46583414D01*
X78344951Y-46772820D01*
X78469890Y-46944786D01*
X78620213Y-47095109D01*
X78792179Y-47220048D01*
X78792181Y-47220049D01*
X78792184Y-47220051D01*
X78981588Y-47316557D01*
X79183757Y-47382246D01*
X79393713Y-47415500D01*
X79393714Y-47415500D01*
X79606286Y-47415500D01*
X79606287Y-47415500D01*
X79816243Y-47382246D01*
X80018412Y-47316557D01*
X80207816Y-47220051D01*
X80229789Y-47204086D01*
X80379786Y-47095109D01*
X80379788Y-47095106D01*
X80379792Y-47095104D01*
X80530104Y-46944792D01*
X80530106Y-46944788D01*
X80530109Y-46944786D01*
X80655048Y-46772820D01*
X80655047Y-46772820D01*
X80655051Y-46772816D01*
X80751557Y-46583412D01*
X80817246Y-46381243D01*
X80850500Y-46171287D01*
X80850500Y-45958713D01*
X80817246Y-45748757D01*
X80751557Y-45546588D01*
X80655051Y-45357184D01*
X80655049Y-45357181D01*
X80655048Y-45357179D01*
X80530109Y-45185213D01*
X80416569Y-45071673D01*
X80383084Y-45010350D01*
X80388068Y-44940658D01*
X80429940Y-44884725D01*
X80460915Y-44867810D01*
X80592331Y-44818796D01*
X80707546Y-44732546D01*
X80793796Y-44617331D01*
X80844091Y-44482483D01*
X80850500Y-44422873D01*
X80850499Y-42627128D01*
X80844091Y-42567517D01*
X80810006Y-42476131D01*
X80793797Y-42432671D01*
X80793793Y-42432664D01*
X80707547Y-42317455D01*
X80707544Y-42317452D01*
X80592335Y-42231206D01*
X80592328Y-42231202D01*
X80457482Y-42180908D01*
X80457483Y-42180908D01*
X80397883Y-42174501D01*
X80397881Y-42174500D01*
X80397873Y-42174500D01*
X80397864Y-42174500D01*
X78602129Y-42174500D01*
X78602123Y-42174501D01*
X78542516Y-42180908D01*
X78407671Y-42231202D01*
X78407664Y-42231206D01*
X78292455Y-42317452D01*
X78292452Y-42317455D01*
X78206206Y-42432664D01*
X78206202Y-42432671D01*
X78155908Y-42567517D01*
X78149501Y-42627116D01*
X78149501Y-42627123D01*
X78149500Y-42627135D01*
X31212470Y-42627135D01*
X31188553Y-42476131D01*
X31154689Y-42371912D01*
X31115568Y-42251508D01*
X31115566Y-42251505D01*
X31115566Y-42251503D01*
X31008342Y-42041066D01*
X30869517Y-41849990D01*
X30702510Y-41682983D01*
X30511433Y-41544157D01*
X30300996Y-41436933D01*
X30076368Y-41363946D01*
X29843097Y-41327000D01*
X29843092Y-41327000D01*
X29606908Y-41327000D01*
X29606903Y-41327000D01*
X29373631Y-41363946D01*
X29149003Y-41436933D01*
X28938566Y-41544157D01*
X28829550Y-41623362D01*
X28747490Y-41682983D01*
X28747488Y-41682985D01*
X28747487Y-41682985D01*
X28580485Y-41849987D01*
X28580485Y-41849988D01*
X28580483Y-41849990D01*
X28520862Y-41932050D01*
X28441657Y-42041066D01*
X28334433Y-42251503D01*
X28261446Y-42476131D01*
X28224500Y-42709402D01*
X13036034Y-42709402D01*
X13036034Y-37278713D01*
X78149500Y-37278713D01*
X78149500Y-37491286D01*
X78182753Y-37701239D01*
X78248444Y-37903414D01*
X78344951Y-38092820D01*
X78469890Y-38264786D01*
X78583430Y-38378326D01*
X78616915Y-38439649D01*
X78611931Y-38509341D01*
X78570059Y-38565274D01*
X78539083Y-38582189D01*
X78407669Y-38631203D01*
X78407664Y-38631206D01*
X78292455Y-38717452D01*
X78292452Y-38717455D01*
X78206206Y-38832664D01*
X78206202Y-38832671D01*
X78155908Y-38967517D01*
X78149501Y-39027116D01*
X78149501Y-39027123D01*
X78149500Y-39027135D01*
X78149500Y-40822870D01*
X78149501Y-40822876D01*
X78155908Y-40882483D01*
X78206202Y-41017328D01*
X78206206Y-41017335D01*
X78292452Y-41132544D01*
X78292455Y-41132547D01*
X78407664Y-41218793D01*
X78407671Y-41218797D01*
X78542517Y-41269091D01*
X78542516Y-41269091D01*
X78549444Y-41269835D01*
X78602127Y-41275500D01*
X80397872Y-41275499D01*
X80457483Y-41269091D01*
X80592331Y-41218796D01*
X80707546Y-41132546D01*
X80793796Y-41017331D01*
X80844091Y-40882483D01*
X80850500Y-40822873D01*
X80850499Y-39027128D01*
X80844091Y-38967517D01*
X80793796Y-38832669D01*
X80793795Y-38832668D01*
X80793793Y-38832664D01*
X80707547Y-38717455D01*
X80707544Y-38717452D01*
X80592335Y-38631206D01*
X80592328Y-38631202D01*
X80460917Y-38582189D01*
X80404983Y-38540318D01*
X80380566Y-38474853D01*
X80395418Y-38406580D01*
X80416563Y-38378332D01*
X80530104Y-38264792D01*
X80655051Y-38092816D01*
X80751557Y-37903412D01*
X80817246Y-37701243D01*
X80850500Y-37491287D01*
X80850500Y-37278713D01*
X80817246Y-37068757D01*
X80751557Y-36866588D01*
X80655051Y-36677184D01*
X80655049Y-36677181D01*
X80655048Y-36677179D01*
X80530109Y-36505213D01*
X80379786Y-36354890D01*
X80207820Y-36229951D01*
X80018414Y-36133444D01*
X80018413Y-36133443D01*
X80018412Y-36133443D01*
X79816243Y-36067754D01*
X79816241Y-36067753D01*
X79816240Y-36067753D01*
X79654957Y-36042208D01*
X79606287Y-36034500D01*
X79393713Y-36034500D01*
X79345042Y-36042208D01*
X79183760Y-36067753D01*
X78981585Y-36133444D01*
X78792179Y-36229951D01*
X78620213Y-36354890D01*
X78469890Y-36505213D01*
X78344951Y-36677179D01*
X78248444Y-36866585D01*
X78182753Y-37068760D01*
X78149500Y-37278713D01*
X13036034Y-37278713D01*
X13036034Y-31302135D01*
X69074500Y-31302135D01*
X69074500Y-33097870D01*
X69074501Y-33097876D01*
X69080908Y-33157483D01*
X69131202Y-33292328D01*
X69131206Y-33292335D01*
X69217452Y-33407544D01*
X69217455Y-33407547D01*
X69332664Y-33493793D01*
X69332671Y-33493797D01*
X69467517Y-33544091D01*
X69467516Y-33544091D01*
X69474444Y-33544835D01*
X69527127Y-33550500D01*
X71322872Y-33550499D01*
X71382483Y-33544091D01*
X71517331Y-33493796D01*
X71632546Y-33407546D01*
X71718796Y-33292331D01*
X71767810Y-33160916D01*
X71809681Y-33104984D01*
X71875145Y-33080566D01*
X71943418Y-33095417D01*
X71971673Y-33116569D01*
X72085213Y-33230109D01*
X72257179Y-33355048D01*
X72257181Y-33355049D01*
X72257184Y-33355051D01*
X72446588Y-33451557D01*
X72648757Y-33517246D01*
X72858713Y-33550500D01*
X72858714Y-33550500D01*
X73071286Y-33550500D01*
X73071287Y-33550500D01*
X73281243Y-33517246D01*
X73483412Y-33451557D01*
X73672816Y-33355051D01*
X73759138Y-33292335D01*
X73844786Y-33230109D01*
X73844788Y-33230106D01*
X73844792Y-33230104D01*
X73995104Y-33079792D01*
X73995106Y-33079788D01*
X73995109Y-33079786D01*
X74120048Y-32907820D01*
X74120047Y-32907820D01*
X74120051Y-32907816D01*
X74216557Y-32718412D01*
X74282246Y-32516243D01*
X74315500Y-32306287D01*
X74315500Y-32093713D01*
X74282246Y-31883757D01*
X74216557Y-31681588D01*
X74120051Y-31492184D01*
X74120049Y-31492181D01*
X74120048Y-31492179D01*
X73995109Y-31320213D01*
X73844786Y-31169890D01*
X73672820Y-31044951D01*
X73483414Y-30948444D01*
X73483413Y-30948443D01*
X73483412Y-30948443D01*
X73281243Y-30882754D01*
X73281241Y-30882753D01*
X73281240Y-30882753D01*
X73119957Y-30857208D01*
X73071287Y-30849500D01*
X72858713Y-30849500D01*
X72810042Y-30857208D01*
X72648760Y-30882753D01*
X72446585Y-30948444D01*
X72257179Y-31044951D01*
X72085215Y-31169889D01*
X71971673Y-31283431D01*
X71910350Y-31316915D01*
X71840658Y-31311931D01*
X71784725Y-31270059D01*
X71767810Y-31239082D01*
X71718797Y-31107671D01*
X71718793Y-31107664D01*
X71632547Y-30992455D01*
X71632544Y-30992452D01*
X71517335Y-30906206D01*
X71517328Y-30906202D01*
X71382482Y-30855908D01*
X71382483Y-30855908D01*
X71322883Y-30849501D01*
X71322881Y-30849500D01*
X71322873Y-30849500D01*
X71322864Y-30849500D01*
X69527129Y-30849500D01*
X69527123Y-30849501D01*
X69467516Y-30855908D01*
X69332671Y-30906202D01*
X69332664Y-30906206D01*
X69217455Y-30992452D01*
X69217452Y-30992455D01*
X69131206Y-31107664D01*
X69131202Y-31107671D01*
X69080908Y-31242517D01*
X69074501Y-31302116D01*
X69074500Y-31302135D01*
X13036034Y-31302135D01*
X13036034Y-28423543D01*
X31499499Y-28423543D01*
X31537947Y-28616829D01*
X31537950Y-28616839D01*
X31613364Y-28798907D01*
X31613371Y-28798920D01*
X31722860Y-28962781D01*
X31722863Y-28962785D01*
X31862214Y-29102136D01*
X31862218Y-29102139D01*
X32026079Y-29211628D01*
X32026092Y-29211635D01*
X32208160Y-29287049D01*
X32208165Y-29287051D01*
X32208169Y-29287051D01*
X32208170Y-29287052D01*
X32401456Y-29325500D01*
X32401459Y-29325500D01*
X32598543Y-29325500D01*
X32728582Y-29299632D01*
X32791835Y-29287051D01*
X32973914Y-29211632D01*
X33137782Y-29102139D01*
X33277139Y-28962782D01*
X33386632Y-28798914D01*
X33462051Y-28616835D01*
X33500500Y-28423543D01*
X58999499Y-28423543D01*
X59037947Y-28616829D01*
X59037950Y-28616839D01*
X59113364Y-28798907D01*
X59113371Y-28798920D01*
X59222860Y-28962781D01*
X59222863Y-28962785D01*
X59362214Y-29102136D01*
X59362218Y-29102139D01*
X59526079Y-29211628D01*
X59526092Y-29211635D01*
X59708160Y-29287049D01*
X59708165Y-29287051D01*
X59708169Y-29287051D01*
X59708170Y-29287052D01*
X59901456Y-29325500D01*
X59901459Y-29325500D01*
X60098543Y-29325500D01*
X60228582Y-29299632D01*
X60291835Y-29287051D01*
X60473914Y-29211632D01*
X60637782Y-29102139D01*
X60777139Y-28962782D01*
X60886632Y-28798914D01*
X60962051Y-28616835D01*
X61000500Y-28423541D01*
X61000500Y-28226459D01*
X61000500Y-28226456D01*
X60962052Y-28033170D01*
X60962051Y-28033169D01*
X60962051Y-28033165D01*
X60915197Y-27920048D01*
X60886635Y-27851092D01*
X60886628Y-27851079D01*
X60777139Y-27687218D01*
X60777136Y-27687214D01*
X60637785Y-27547863D01*
X60637781Y-27547860D01*
X60473920Y-27438371D01*
X60473907Y-27438364D01*
X60291839Y-27362950D01*
X60291829Y-27362947D01*
X60098543Y-27324500D01*
X60098541Y-27324500D01*
X59901459Y-27324500D01*
X59901457Y-27324500D01*
X59708170Y-27362947D01*
X59708160Y-27362950D01*
X59526092Y-27438364D01*
X59526079Y-27438371D01*
X59362218Y-27547860D01*
X59362214Y-27547863D01*
X59222863Y-27687214D01*
X59222860Y-27687218D01*
X59113371Y-27851079D01*
X59113364Y-27851092D01*
X59037950Y-28033160D01*
X59037947Y-28033170D01*
X58999500Y-28226456D01*
X58999500Y-28226459D01*
X58999500Y-28423541D01*
X58999500Y-28423543D01*
X58999499Y-28423543D01*
X33500500Y-28423543D01*
X33500500Y-28423541D01*
X33500500Y-28226459D01*
X33500500Y-28226456D01*
X33462052Y-28033170D01*
X33462051Y-28033169D01*
X33462051Y-28033165D01*
X33415197Y-27920048D01*
X33386635Y-27851092D01*
X33386628Y-27851079D01*
X33277139Y-27687218D01*
X33277136Y-27687214D01*
X33137785Y-27547863D01*
X33137781Y-27547860D01*
X32973920Y-27438371D01*
X32973907Y-27438364D01*
X32791839Y-27362950D01*
X32791829Y-27362947D01*
X32598543Y-27324500D01*
X32598541Y-27324500D01*
X32401459Y-27324500D01*
X32401457Y-27324500D01*
X32208170Y-27362947D01*
X32208160Y-27362950D01*
X32026092Y-27438364D01*
X32026079Y-27438371D01*
X31862218Y-27547860D01*
X31862214Y-27547863D01*
X31722863Y-27687214D01*
X31722860Y-27687218D01*
X31613371Y-27851079D01*
X31613364Y-27851092D01*
X31537950Y-28033160D01*
X31537947Y-28033170D01*
X31499500Y-28226456D01*
X31499500Y-28226459D01*
X31499500Y-28423541D01*
X31499500Y-28423543D01*
X31499499Y-28423543D01*
X13036034Y-28423543D01*
X13036034Y-23709402D01*
X28224500Y-23709402D01*
X28224500Y-23945597D01*
X28261446Y-24178868D01*
X28334433Y-24403496D01*
X28441657Y-24613933D01*
X28580483Y-24805010D01*
X28747490Y-24972017D01*
X28938567Y-25110843D01*
X29037991Y-25161502D01*
X29149003Y-25218066D01*
X29149005Y-25218066D01*
X29149008Y-25218068D01*
X29269412Y-25257189D01*
X29373631Y-25291053D01*
X29606903Y-25328000D01*
X29606908Y-25328000D01*
X29843097Y-25328000D01*
X30076368Y-25291053D01*
X30300992Y-25218068D01*
X30511433Y-25110843D01*
X30702510Y-24972017D01*
X30869517Y-24805010D01*
X31008343Y-24613933D01*
X31115568Y-24403492D01*
X31188553Y-24178868D01*
X31225500Y-23945597D01*
X31225500Y-23709402D01*
X31204005Y-23573697D01*
X31188553Y-23476132D01*
X31188552Y-23476128D01*
X31188552Y-23476127D01*
X31151510Y-23362124D01*
X31140141Y-23327135D01*
X78149500Y-23327135D01*
X78149500Y-25122870D01*
X78149501Y-25122876D01*
X78155908Y-25182483D01*
X78206202Y-25317328D01*
X78206206Y-25317335D01*
X78292452Y-25432544D01*
X78292455Y-25432547D01*
X78407664Y-25518793D01*
X78407671Y-25518797D01*
X78539082Y-25567810D01*
X78595016Y-25609681D01*
X78619433Y-25675145D01*
X78604582Y-25743418D01*
X78583431Y-25771673D01*
X78469889Y-25885215D01*
X78344951Y-26057179D01*
X78248444Y-26246585D01*
X78182753Y-26448760D01*
X78149500Y-26658713D01*
X78149500Y-26871286D01*
X78182753Y-27081239D01*
X78248444Y-27283414D01*
X78344951Y-27472820D01*
X78469890Y-27644786D01*
X78620213Y-27795109D01*
X78792179Y-27920048D01*
X78792181Y-27920049D01*
X78792184Y-27920051D01*
X78981588Y-28016557D01*
X79183757Y-28082246D01*
X79393713Y-28115500D01*
X79393714Y-28115500D01*
X79606286Y-28115500D01*
X79606287Y-28115500D01*
X79816243Y-28082246D01*
X80018412Y-28016557D01*
X80207816Y-27920051D01*
X80302739Y-27851086D01*
X80379786Y-27795109D01*
X80379788Y-27795106D01*
X80379792Y-27795104D01*
X80530104Y-27644792D01*
X80530106Y-27644788D01*
X80530109Y-27644786D01*
X80655048Y-27472820D01*
X80655047Y-27472820D01*
X80655051Y-27472816D01*
X80751557Y-27283412D01*
X80817246Y-27081243D01*
X80850500Y-26871287D01*
X80850500Y-26658713D01*
X80817246Y-26448757D01*
X80751557Y-26246588D01*
X80655051Y-26057184D01*
X80655049Y-26057181D01*
X80655048Y-26057179D01*
X80530109Y-25885213D01*
X80416569Y-25771673D01*
X80383084Y-25710350D01*
X80388068Y-25640658D01*
X80429940Y-25584725D01*
X80460915Y-25567810D01*
X80592331Y-25518796D01*
X80707546Y-25432546D01*
X80793796Y-25317331D01*
X80844091Y-25182483D01*
X80850500Y-25122873D01*
X80850499Y-23327128D01*
X80844091Y-23267517D01*
X80838118Y-23251503D01*
X80793797Y-23132671D01*
X80793793Y-23132664D01*
X80707547Y-23017455D01*
X80707544Y-23017452D01*
X80592335Y-22931206D01*
X80592328Y-22931202D01*
X80457482Y-22880908D01*
X80457483Y-22880908D01*
X80397883Y-22874501D01*
X80397881Y-22874500D01*
X80397873Y-22874500D01*
X80397864Y-22874500D01*
X78602129Y-22874500D01*
X78602123Y-22874501D01*
X78542516Y-22880908D01*
X78407671Y-22931202D01*
X78407664Y-22931206D01*
X78292455Y-23017452D01*
X78292452Y-23017455D01*
X78206206Y-23132664D01*
X78206202Y-23132671D01*
X78155908Y-23267517D01*
X78149501Y-23327116D01*
X78149501Y-23327123D01*
X78149500Y-23327135D01*
X31140141Y-23327135D01*
X31129905Y-23295633D01*
X31115568Y-23251508D01*
X31115566Y-23251505D01*
X31115566Y-23251503D01*
X31055018Y-23132671D01*
X31008343Y-23041067D01*
X30869517Y-22849990D01*
X30702510Y-22682983D01*
X30511433Y-22544157D01*
X30300996Y-22436933D01*
X30076368Y-22363946D01*
X29843097Y-22327000D01*
X29843092Y-22327000D01*
X29606908Y-22327000D01*
X29606903Y-22327000D01*
X29373631Y-22363946D01*
X29149003Y-22436933D01*
X28938566Y-22544157D01*
X28829550Y-22623362D01*
X28747490Y-22682983D01*
X28747488Y-22682985D01*
X28747487Y-22682985D01*
X28580485Y-22849987D01*
X28580485Y-22849988D01*
X28580483Y-22849990D01*
X28562675Y-22874501D01*
X28441657Y-23041066D01*
X28334433Y-23251503D01*
X28261446Y-23476131D01*
X28224500Y-23709402D01*
X13036034Y-23709402D01*
X13036034Y-18002706D01*
X13036152Y-17997297D01*
X13041089Y-17884219D01*
X13041759Y-17868872D01*
X15535034Y-17868872D01*
X15535034Y-18131127D01*
X15561657Y-18333339D01*
X15569264Y-18391116D01*
X15637136Y-18644418D01*
X15637139Y-18644428D01*
X15737487Y-18886690D01*
X15737492Y-18886700D01*
X15868609Y-19113803D01*
X16028252Y-19321851D01*
X16028260Y-19321860D01*
X16213674Y-19507274D01*
X16213682Y-19507281D01*
X16421730Y-19666924D01*
X16648833Y-19798041D01*
X16648843Y-19798046D01*
X16891105Y-19898394D01*
X16891115Y-19898398D01*
X17144418Y-19966270D01*
X17404414Y-20000500D01*
X17404421Y-20000500D01*
X17666647Y-20000500D01*
X17666654Y-20000500D01*
X17926650Y-19966270D01*
X18179953Y-19898398D01*
X18422231Y-19798043D01*
X18649337Y-19666924D01*
X18857385Y-19507282D01*
X18857389Y-19507277D01*
X18857394Y-19507274D01*
X19042808Y-19321860D01*
X19042811Y-19321855D01*
X19042816Y-19321851D01*
X19202458Y-19113803D01*
X19333577Y-18886697D01*
X19433932Y-18644419D01*
X19501804Y-18391116D01*
X19536034Y-18131120D01*
X19536034Y-18003713D01*
X78149500Y-18003713D01*
X78149500Y-18216286D01*
X78182753Y-18426239D01*
X78248444Y-18628414D01*
X78344951Y-18817820D01*
X78469890Y-18989786D01*
X78583430Y-19103326D01*
X78616915Y-19164649D01*
X78611931Y-19234341D01*
X78570059Y-19290274D01*
X78539083Y-19307189D01*
X78407669Y-19356203D01*
X78407664Y-19356206D01*
X78292455Y-19442452D01*
X78292452Y-19442455D01*
X78206206Y-19557664D01*
X78206202Y-19557671D01*
X78155908Y-19692517D01*
X78149501Y-19752116D01*
X78149501Y-19752123D01*
X78149500Y-19752135D01*
X78149500Y-21547870D01*
X78149501Y-21547876D01*
X78155908Y-21607483D01*
X78206202Y-21742328D01*
X78206206Y-21742335D01*
X78292452Y-21857544D01*
X78292455Y-21857547D01*
X78407664Y-21943793D01*
X78407671Y-21943797D01*
X78542517Y-21994091D01*
X78542516Y-21994091D01*
X78549444Y-21994835D01*
X78602127Y-22000500D01*
X80397872Y-22000499D01*
X80457483Y-21994091D01*
X80592331Y-21943796D01*
X80707546Y-21857546D01*
X80793796Y-21742331D01*
X80844091Y-21607483D01*
X80850500Y-21547873D01*
X80850499Y-19752128D01*
X80844091Y-19692517D01*
X80834545Y-19666924D01*
X80793797Y-19557671D01*
X80793793Y-19557664D01*
X80707547Y-19442455D01*
X80707544Y-19442452D01*
X80592335Y-19356206D01*
X80592328Y-19356202D01*
X80460917Y-19307189D01*
X80404983Y-19265318D01*
X80380566Y-19199853D01*
X80395418Y-19131580D01*
X80416563Y-19103332D01*
X80530104Y-18989792D01*
X80655051Y-18817816D01*
X80751557Y-18628412D01*
X80817246Y-18426243D01*
X80850500Y-18216287D01*
X80850500Y-18003713D01*
X80839476Y-17934108D01*
X80831574Y-17884219D01*
X80829143Y-17868872D01*
X96263966Y-17868872D01*
X96263966Y-18131127D01*
X96290589Y-18333339D01*
X96298196Y-18391116D01*
X96366068Y-18644418D01*
X96366071Y-18644428D01*
X96466419Y-18886690D01*
X96466424Y-18886700D01*
X96597541Y-19113803D01*
X96757184Y-19321851D01*
X96757192Y-19321860D01*
X96942606Y-19507274D01*
X96942614Y-19507281D01*
X97150662Y-19666924D01*
X97377765Y-19798041D01*
X97377775Y-19798046D01*
X97620037Y-19898394D01*
X97620047Y-19898398D01*
X97873350Y-19966270D01*
X98133346Y-20000500D01*
X98133353Y-20000500D01*
X98395579Y-20000500D01*
X98395586Y-20000500D01*
X98655582Y-19966270D01*
X98908885Y-19898398D01*
X99151163Y-19798043D01*
X99378269Y-19666924D01*
X99586317Y-19507282D01*
X99586321Y-19507277D01*
X99586326Y-19507274D01*
X99771740Y-19321860D01*
X99771743Y-19321855D01*
X99771748Y-19321851D01*
X99931390Y-19113803D01*
X100062509Y-18886697D01*
X100162864Y-18644419D01*
X100230736Y-18391116D01*
X100264966Y-18131120D01*
X100264966Y-17868880D01*
X100230736Y-17608884D01*
X100162864Y-17355581D01*
X100106154Y-17218670D01*
X100062512Y-17113309D01*
X100062507Y-17113299D01*
X99931390Y-16886196D01*
X99771747Y-16678148D01*
X99771740Y-16678140D01*
X99586326Y-16492726D01*
X99586317Y-16492718D01*
X99378269Y-16333075D01*
X99151166Y-16201958D01*
X99151156Y-16201953D01*
X98908894Y-16101605D01*
X98908887Y-16101603D01*
X98908885Y-16101602D01*
X98655582Y-16033730D01*
X98597805Y-16026123D01*
X98395593Y-15999500D01*
X98395586Y-15999500D01*
X98133346Y-15999500D01*
X98133338Y-15999500D01*
X97902238Y-16029926D01*
X97873350Y-16033730D01*
X97649825Y-16093623D01*
X97620047Y-16101602D01*
X97620037Y-16101605D01*
X97377775Y-16201953D01*
X97377765Y-16201958D01*
X97150662Y-16333075D01*
X96942614Y-16492718D01*
X96757184Y-16678148D01*
X96597541Y-16886196D01*
X96466424Y-17113299D01*
X96466419Y-17113309D01*
X96366071Y-17355571D01*
X96366068Y-17355581D01*
X96298196Y-17608884D01*
X96297621Y-17613249D01*
X96263966Y-17868872D01*
X80829143Y-17868872D01*
X80817246Y-17793760D01*
X80817246Y-17793757D01*
X80751557Y-17591588D01*
X80655051Y-17402184D01*
X80655049Y-17402181D01*
X80655048Y-17402179D01*
X80530109Y-17230213D01*
X80379786Y-17079890D01*
X80207820Y-16954951D01*
X80018414Y-16858444D01*
X80018413Y-16858443D01*
X80018412Y-16858443D01*
X79816243Y-16792754D01*
X79816241Y-16792753D01*
X79816240Y-16792753D01*
X79654957Y-16767208D01*
X79606287Y-16759500D01*
X79393713Y-16759500D01*
X79345042Y-16767208D01*
X79183760Y-16792753D01*
X78981585Y-16858444D01*
X78792179Y-16954951D01*
X78620213Y-17079890D01*
X78469890Y-17230213D01*
X78344951Y-17402179D01*
X78248444Y-17591585D01*
X78182753Y-17793760D01*
X78149500Y-18003713D01*
X19536034Y-18003713D01*
X19536034Y-17868880D01*
X19501804Y-17608884D01*
X19433932Y-17355581D01*
X19377222Y-17218670D01*
X19333580Y-17113309D01*
X19333575Y-17113299D01*
X19202458Y-16886196D01*
X19042815Y-16678148D01*
X19042808Y-16678140D01*
X18857394Y-16492726D01*
X18857385Y-16492718D01*
X18649337Y-16333075D01*
X18422234Y-16201958D01*
X18422224Y-16201953D01*
X18179962Y-16101605D01*
X18179955Y-16101603D01*
X18179953Y-16101602D01*
X17926650Y-16033730D01*
X17868873Y-16026123D01*
X17666661Y-15999500D01*
X17666654Y-15999500D01*
X17404414Y-15999500D01*
X17404406Y-15999500D01*
X17173306Y-16029926D01*
X17144418Y-16033730D01*
X16920893Y-16093623D01*
X16891115Y-16101602D01*
X16891105Y-16101605D01*
X16648843Y-16201953D01*
X16648833Y-16201958D01*
X16421730Y-16333075D01*
X16213682Y-16492718D01*
X16028252Y-16678148D01*
X15868609Y-16886196D01*
X15737492Y-17113299D01*
X15737487Y-17113309D01*
X15637139Y-17355571D01*
X15637136Y-17355581D01*
X15569264Y-17608884D01*
X15568689Y-17613249D01*
X15535034Y-17868872D01*
X13041759Y-17868872D01*
X13052920Y-17613226D01*
X13053859Y-17602496D01*
X13103685Y-17224032D01*
X13105558Y-17213402D01*
X13188182Y-16840714D01*
X13190980Y-16830276D01*
X13202811Y-16792753D01*
X13305764Y-16466227D01*
X13309451Y-16456095D01*
X13455537Y-16103412D01*
X13460095Y-16093638D01*
X13636356Y-15755045D01*
X13641751Y-15745700D01*
X13846859Y-15423744D01*
X13853049Y-15414905D01*
X14085430Y-15112060D01*
X14092368Y-15103791D01*
X14350260Y-14822352D01*
X14357886Y-14814726D01*
X14639325Y-14556834D01*
X14647594Y-14549896D01*
X14950439Y-14317515D01*
X14959278Y-14311325D01*
X15281234Y-14106217D01*
X15290579Y-14100822D01*
X15629172Y-13924561D01*
X15638946Y-13920003D01*
X15991629Y-13773917D01*
X16001761Y-13770230D01*
X16365819Y-13655443D01*
X16376248Y-13652648D01*
X16748936Y-13570024D01*
X16759566Y-13568151D01*
X17138030Y-13518325D01*
X17148758Y-13517387D01*
X17532831Y-13500617D01*
X17538240Y-13500500D01*
X17601426Y-13500500D01*
X98198574Y-13500500D01*
X98261760Y-13500500D01*
X98267168Y-13500617D01*
G37*
%TD.AperFunction*%
%TD*%
M02*
