%TF.GenerationSoftware,KiCad,Pcbnew,10.0.4*%
%TF.CreationDate,2026-07-30T22:03:17+05:30*%
%TF.ProjectId,Signal Conditioning Circuit 4 IO,5369676e-616c-4204-936f-6e646974696f,rev?*%
%TF.SameCoordinates,Original*%
%TF.FileFunction,Copper,L4,Bot*%
%TF.FilePolarity,Positive*%
%FSLAX46Y46*%
G04 Gerber Fmt 4.6, Leading zero omitted, Abs format (unit mm)*
G04 Created by KiCad (PCBNEW 10.0.4) date 2026-07-30 22:03:17*
%MOMM*%
%LPD*%
G01*
G04 APERTURE LIST*
G04 Aperture macros list*
%AMRoundRect*
0 Rectangle with rounded corners*
0 $1 Rounding radius*
0 $2 $3 $4 $5 $6 $7 $8 $9 X,Y pos of 4 corners*
0 Add a 4 corners polygon primitive as box body*
4,1,4,$2,$3,$4,$5,$6,$7,$8,$9,$2,$3,0*
0 Add four circle primitives for the rounded corners*
1,1,$1+$1,$2,$3*
1,1,$1+$1,$4,$5*
1,1,$1+$1,$6,$7*
1,1,$1+$1,$8,$9*
0 Add four rect primitives between the rounded corners*
20,1,$1+$1,$2,$3,$4,$5,0*
20,1,$1+$1,$4,$5,$6,$7,0*
20,1,$1+$1,$6,$7,$8,$9,0*
20,1,$1+$1,$8,$9,$2,$3,0*%
G04 Aperture macros list end*
%TA.AperFunction,ComponentPad*%
%ADD10R,1.700000X1.700000*%
%TD*%
%TA.AperFunction,ComponentPad*%
%ADD11C,1.700000*%
%TD*%
%TA.AperFunction,ComponentPad*%
%ADD12C,2.000000*%
%TD*%
%TA.AperFunction,ComponentPad*%
%ADD13C,1.440000*%
%TD*%
%TA.AperFunction,ComponentPad*%
%ADD14RoundRect,0.250000X-0.750000X-0.750000X0.750000X-0.750000X0.750000X0.750000X-0.750000X0.750000X0*%
%TD*%
%TA.AperFunction,ComponentPad*%
%ADD15RoundRect,0.250000X0.600000X0.600000X-0.600000X0.600000X-0.600000X-0.600000X0.600000X-0.600000X0*%
%TD*%
%TA.AperFunction,ComponentPad*%
%ADD16RoundRect,0.250000X-0.750000X0.750000X-0.750000X-0.750000X0.750000X-0.750000X0.750000X0.750000X0*%
%TD*%
%TA.AperFunction,SMDPad,CuDef*%
%ADD17RoundRect,0.250000X-0.650000X0.325000X-0.650000X-0.325000X0.650000X-0.325000X0.650000X0.325000X0*%
%TD*%
%TA.AperFunction,ViaPad*%
%ADD18C,0.900000*%
%TD*%
%TA.AperFunction,ViaPad*%
%ADD19C,1.000000*%
%TD*%
%TA.AperFunction,Conductor*%
%ADD20C,0.600000*%
%TD*%
%TA.AperFunction,Conductor*%
%ADD21C,0.800000*%
%TD*%
%TA.AperFunction,Conductor*%
%ADD22C,1.000000*%
%TD*%
G04 APERTURE END LIST*
D10*
%TO.P,SW9,1,1*%
%TO.N,Signal_1_Out*%
X79500000Y-24225000D03*
D11*
%TO.P,SW9,2,2*%
%TO.N,Net-(DS2-K)*%
X79500000Y-26765000D03*
%TD*%
D10*
%TO.P,SW4,1,1*%
%TO.N,Net-(RS26-Pad2)*%
X70425000Y-89600000D03*
D11*
%TO.P,SW4,2,2*%
%TO.N,1V51*%
X72965000Y-89600000D03*
%TD*%
D10*
%TO.P,SW11,1,1*%
%TO.N,Signal_3_Out*%
X79500000Y-58850000D03*
D11*
%TO.P,SW11,2,2*%
%TO.N,Net-(DS5-A)*%
X79500000Y-56310000D03*
%TD*%
D12*
%TO.P,TPS13,1,1*%
%TO.N,Signal_3*%
X29725000Y-61852500D03*
%TD*%
D13*
%TO.P,RV1V5,1,1*%
%TO.N,unconnected-(RV1V5-Pad1)*%
X52280000Y-105050000D03*
%TO.P,RV1V5,2,2*%
%TO.N,GND*%
X49740000Y-105050000D03*
%TO.P,RV1V5,3,3*%
%TO.N,/1v5ADJ*%
X47200000Y-105050000D03*
%TD*%
D10*
%TO.P,SW1,1,1*%
%TO.N,Net-(RS12-Pad2)*%
X70425000Y-51500000D03*
D11*
%TO.P,SW1,2,2*%
%TO.N,1V51*%
X72965000Y-51500000D03*
%TD*%
D10*
%TO.P,SW12,1,1*%
%TO.N,Signal_4_Out*%
X79500000Y-81275000D03*
D11*
%TO.P,SW12,2,2*%
%TO.N,Net-(DS8-K)*%
X79500000Y-83815000D03*
%TD*%
D10*
%TO.P,SW7,1,1*%
%TO.N,Signal_3_Out*%
X79500000Y-62400000D03*
D11*
%TO.P,SW7,2,2*%
%TO.N,Net-(DS6-K)*%
X79500000Y-64940000D03*
%TD*%
D12*
%TO.P,TPS7,1,1*%
%TO.N,Signal_2*%
X29725000Y-42827500D03*
%TD*%
D10*
%TO.P,SW2,1,1*%
%TO.N,Net-(RS6-Pad2)*%
X70425000Y-32200000D03*
D11*
%TO.P,SW2,2,2*%
%TO.N,1V51*%
X72965000Y-32200000D03*
%TD*%
D10*
%TO.P,SW5,1,1*%
%TO.N,Signal_1_Out*%
X79500000Y-20650000D03*
D11*
%TO.P,SW5,2,2*%
%TO.N,Net-(DS1-A)*%
X79500000Y-18110000D03*
%TD*%
D14*
%TO.P,J1V5,1,Pin_1*%
%TO.N,GND*%
X66660000Y-105200000D03*
D12*
%TO.P,J1V5,2,Pin_2*%
%TO.N,Net-(J1V5-Pin_2)*%
X69200000Y-105200000D03*
%TD*%
D15*
%TO.P,J1,1,Pin_1*%
%TO.N,GND*%
X97140000Y-59200000D03*
D11*
%TO.P,J1,2,Pin_2*%
%TO.N,1V51*%
X94600000Y-59200000D03*
%TO.P,J1,3,Pin_3*%
%TO.N,GND*%
X97140000Y-56660000D03*
%TO.P,J1,4,Pin_4*%
%TO.N,Signal_4_Out*%
X94600000Y-56660000D03*
%TO.P,J1,5,Pin_5*%
%TO.N,GND*%
X97140000Y-54120000D03*
%TO.P,J1,6,Pin_6*%
%TO.N,Signal_3_Out*%
X94600000Y-54120000D03*
%TO.P,J1,7,Pin_7*%
%TO.N,GND*%
X97140000Y-51580000D03*
%TO.P,J1,8,Pin_8*%
%TO.N,Signal_2_Out*%
X94600000Y-51580000D03*
%TO.P,J1,9,Pin_9*%
%TO.N,GND*%
X97140000Y-49040000D03*
%TO.P,J1,10,Pin_10*%
%TO.N,Signal_1_Out*%
X94600000Y-49040000D03*
%TD*%
D10*
%TO.P,SW8,1,1*%
%TO.N,Signal_4_Out*%
X79500000Y-77700000D03*
D11*
%TO.P,SW8,2,2*%
%TO.N,Net-(DS7-A)*%
X79500000Y-75160000D03*
%TD*%
D10*
%TO.P,SW6,1,1*%
%TO.N,Signal_2_Out*%
X79500000Y-39925000D03*
D11*
%TO.P,SW6,2,2*%
%TO.N,Net-(DS3-A)*%
X79500000Y-37385000D03*
%TD*%
D12*
%TO.P,TPS2,1,1*%
%TO.N,1V51*%
X80550000Y-96250000D03*
%TD*%
%TO.P,TPS19,1,1*%
%TO.N,Signal_4*%
X29725000Y-80852500D03*
%TD*%
D16*
%TO.P,Aux1,1,Pin_1*%
%TO.N,-15V*%
X16925000Y-74925000D03*
D12*
%TO.P,Aux1,2,Pin_2*%
%TO.N,GND*%
X16925000Y-77465000D03*
%TO.P,Aux1,3,Pin_3*%
%TO.N,+15V*%
X16925000Y-80005000D03*
%TD*%
D10*
%TO.P,JP1V5,1,A*%
%TO.N,Net-(J1V5-Pin_2)*%
X74325000Y-103280000D03*
D11*
%TO.P,JP1V5,2,C*%
%TO.N,1V5*%
X74325000Y-100740000D03*
%TO.P,JP1V5,3,B*%
%TO.N,/1v5LM*%
X74325000Y-98200000D03*
%TD*%
D12*
%TO.P,TPS1,1,1*%
%TO.N,Signal_1*%
X29725000Y-23827500D03*
%TD*%
D15*
%TO.P,Sensor_In1,1,Pin_1*%
%TO.N,GND*%
X19000000Y-60055000D03*
D11*
%TO.P,Sensor_In1,2,Pin_2*%
%TO.N,+15V*%
X16460000Y-60055000D03*
%TO.P,Sensor_In1,3,Pin_3*%
%TO.N,GND*%
X19000000Y-57515000D03*
%TO.P,Sensor_In1,4,Pin_4*%
%TO.N,Signal_4*%
X16460000Y-57515000D03*
%TO.P,Sensor_In1,5,Pin_5*%
%TO.N,GND*%
X19000000Y-54975000D03*
%TO.P,Sensor_In1,6,Pin_6*%
%TO.N,Signal_3*%
X16460000Y-54975000D03*
%TO.P,Sensor_In1,7,Pin_7*%
%TO.N,GND*%
X19000000Y-52435000D03*
%TO.P,Sensor_In1,8,Pin_8*%
%TO.N,Signal_2*%
X16460000Y-52435000D03*
%TO.P,Sensor_In1,9,Pin_9*%
%TO.N,GND*%
X19000000Y-49895000D03*
%TO.P,Sensor_In1,10,Pin_10*%
%TO.N,Signal_1*%
X16460000Y-49895000D03*
%TO.P,Sensor_In1,11,Pin_11*%
%TO.N,GND*%
X19000000Y-47355000D03*
%TO.P,Sensor_In1,12,Pin_12*%
%TO.N,-15V*%
X16460000Y-47355000D03*
%TD*%
D10*
%TO.P,SW3,1,1*%
%TO.N,Net-(RS19-Pad2)*%
X70425000Y-70200000D03*
D11*
%TO.P,SW3,2,2*%
%TO.N,1V51*%
X72965000Y-70200000D03*
%TD*%
D10*
%TO.P,SW10,1,1*%
%TO.N,Signal_2_Out*%
X79500000Y-43525000D03*
D11*
%TO.P,SW10,2,2*%
%TO.N,Net-(DS4-K)*%
X79500000Y-46065000D03*
%TD*%
D17*
%TO.P,C19,1*%
%TO.N,GND*%
X83700000Y-46950000D03*
%TO.P,C19,2*%
%TO.N,1V51*%
X83700000Y-49900000D03*
%TD*%
%TO.P,C20,1*%
%TO.N,GND*%
X83700000Y-84625000D03*
%TO.P,C20,2*%
%TO.N,1V51*%
X83700000Y-87575000D03*
%TD*%
%TO.P,C18,1*%
%TO.N,GND*%
X83700000Y-27800000D03*
%TO.P,C18,2*%
%TO.N,1V51*%
X83700000Y-30750000D03*
%TD*%
%TO.P,C21,1*%
%TO.N,GND*%
X83700000Y-65800000D03*
%TO.P,C21,2*%
%TO.N,1V51*%
X83700000Y-68750000D03*
%TD*%
D18*
%TO.N,GND*%
X40800000Y-84050000D03*
X49550000Y-27900000D03*
X70000000Y-54200000D03*
X90200000Y-96200000D03*
X69400000Y-46200000D03*
X66600000Y-47000000D03*
X85850000Y-46950000D03*
X44400000Y-18200000D03*
X66600000Y-85000000D03*
X66800000Y-28200000D03*
X66800000Y-66400000D03*
X44400000Y-75200000D03*
X69200000Y-26800000D03*
X39900000Y-26750000D03*
X69800000Y-73200000D03*
X39400000Y-47000000D03*
X39400000Y-66400000D03*
X80400000Y-104800000D03*
X39950000Y-45650000D03*
X50200000Y-47000000D03*
X85900000Y-65800000D03*
X49800000Y-85200000D03*
X85950000Y-44550000D03*
X44200000Y-56400000D03*
X39400000Y-28400000D03*
X85600000Y-27800000D03*
X69850000Y-15950000D03*
X86050000Y-63500000D03*
X44400000Y-37200000D03*
X69400000Y-83800000D03*
X39600000Y-85000000D03*
X86000000Y-84550000D03*
X85650000Y-25550000D03*
X69800000Y-35000000D03*
X40500000Y-64950000D03*
X50000000Y-66200000D03*
X69200000Y-65000000D03*
X86000000Y-82600000D03*
D19*
%TO.N,-15V*%
X60000000Y-47125000D03*
X32500000Y-28325000D03*
X32500000Y-66300000D03*
X60000000Y-28325000D03*
X32500000Y-47125000D03*
X32000000Y-85100000D03*
X60000000Y-85100000D03*
X60000000Y-66300000D03*
%TD*%
%TO.N,GND*%
D20*
X85925000Y-84625000D02*
X86000000Y-84550000D01*
X85850000Y-46950000D02*
X83700000Y-46950000D01*
X83700000Y-84625000D02*
X85925000Y-84625000D01*
X85600000Y-27800000D02*
X83700000Y-27800000D01*
X85900000Y-65800000D02*
X83700000Y-65800000D01*
%TO.N,-15V*%
D21*
X60000000Y-85000000D02*
X60000000Y-87000000D01*
X25500000Y-87000000D02*
X25500000Y-85000000D01*
X60000000Y-29800000D02*
X59300000Y-30500000D01*
X32500000Y-66500000D02*
X32500000Y-69000000D01*
D22*
X25500000Y-75000000D02*
X25500000Y-85000000D01*
X25500000Y-43200000D02*
X25500000Y-32500000D01*
D21*
X32500000Y-87500000D02*
X32000000Y-87500000D01*
D22*
X16925000Y-74925000D02*
X25425000Y-74925000D01*
D21*
X60000000Y-47125000D02*
X60000000Y-49000000D01*
X32500000Y-28500000D02*
X32500000Y-30500000D01*
D22*
X25425000Y-74925000D02*
X25500000Y-75000000D01*
D21*
X60000000Y-68500000D02*
X59500000Y-69000000D01*
X60000000Y-87000000D02*
X59500000Y-87500000D01*
X59000000Y-50000000D02*
X32500000Y-50000000D01*
X32500000Y-69000000D02*
X25500000Y-69000000D01*
D22*
X25500000Y-50000000D02*
X25500000Y-43200000D01*
D21*
X32500000Y-30500000D02*
X26000000Y-30500000D01*
D22*
X17550000Y-43200000D02*
X25500000Y-43200000D01*
D21*
X60000000Y-28500000D02*
X60000000Y-29800000D01*
X59300000Y-30500000D02*
X32500000Y-30500000D01*
D22*
X16460000Y-44290000D02*
X17550000Y-43200000D01*
X25500000Y-69000000D02*
X25500000Y-50000000D01*
D21*
X26000000Y-87500000D02*
X25500000Y-87000000D01*
X60000000Y-66500000D02*
X60000000Y-68500000D01*
X59500000Y-69000000D02*
X32500000Y-69000000D01*
X32500000Y-87500000D02*
X26000000Y-87500000D01*
X59500000Y-87500000D02*
X32500000Y-87500000D01*
X32500000Y-50000000D02*
X25500000Y-50000000D01*
X60000000Y-49000000D02*
X59000000Y-50000000D01*
X32000000Y-87500000D02*
X32000000Y-85000000D01*
D22*
X25500000Y-75000000D02*
X25500000Y-69000000D01*
D21*
X32500000Y-47125000D02*
X32500000Y-50000000D01*
X25500000Y-31000000D02*
X25500000Y-32500000D01*
X26000000Y-30500000D02*
X25500000Y-31000000D01*
D22*
X16460000Y-47355000D02*
X16460000Y-44290000D01*
%TO.N,1V51*%
X83800000Y-32200000D02*
X72965000Y-32200000D01*
D20*
X94600000Y-59200000D02*
X88750000Y-59200000D01*
X83700000Y-32100000D02*
X83800000Y-32200000D01*
D22*
X87250000Y-32200000D02*
X83800000Y-32200000D01*
X80550000Y-96250000D02*
X80550000Y-89600000D01*
D20*
X83700000Y-69950000D02*
X83950000Y-70200000D01*
D22*
X72965000Y-70200000D02*
X83950000Y-70200000D01*
D20*
X83700000Y-68750000D02*
X83700000Y-69950000D01*
D22*
X88250000Y-51500000D02*
X88450000Y-51700000D01*
X80550000Y-89600000D02*
X83600000Y-89600000D01*
X88450000Y-58900000D02*
X88450000Y-51700000D01*
X88450000Y-33400000D02*
X87250000Y-32200000D01*
X83950000Y-70200000D02*
X88100000Y-70200000D01*
X88450000Y-88400000D02*
X88450000Y-70550000D01*
X88450000Y-70550000D02*
X88450000Y-58900000D01*
D20*
X83700000Y-51250000D02*
X83950000Y-51500000D01*
D22*
X72965000Y-89600000D02*
X87250000Y-89600000D01*
X72965000Y-51500000D02*
X83950000Y-51500000D01*
D20*
X83700000Y-89500000D02*
X83600000Y-89600000D01*
X83700000Y-87575000D02*
X83700000Y-89500000D01*
X83700000Y-49900000D02*
X83700000Y-51250000D01*
D22*
X88100000Y-70200000D02*
X88450000Y-70550000D01*
D20*
X83700000Y-30750000D02*
X83700000Y-32100000D01*
D22*
X83950000Y-51500000D02*
X88250000Y-51500000D01*
D20*
X88750000Y-59200000D02*
X88450000Y-58900000D01*
D22*
X88450000Y-51700000D02*
X88450000Y-33400000D01*
X87250000Y-89600000D02*
X88450000Y-88400000D01*
%TD*%
M02*
